<svg width="698" height="404" viewBox="0 0 698 404" fill="none" xmlns="http://www.w3.org/2000/svg">
<g clip-path="url(#clip0_32_467)">
<path d="M424.843 0.67219C424.467 0.441333 424.092 0.217262 423.716 -1.52588e-05H384.489C384.207 0.448119 383.939 0.903044 383.677 1.35797H425.971C425.595 1.1271 425.219 0.903027 424.843 0.67219ZM165.413 134.753V144.87C165.581 144.883 165.756 144.883 165.923 144.89L165.588 164.336L165.413 164.241V166.156L165.554 166.231L165.413 174.385V202.496H166.756V130.17C166.38 131.636 165.932 133.164 165.413 134.753ZM424.843 0.67219C424.467 0.441333 424.092 0.217262 423.716 -1.52588e-05H384.489C384.207 0.448119 383.939 0.903044 383.677 1.35797H425.971C425.595 1.1271 425.219 0.903027 424.843 0.67219ZM543.315 -1.52588e-05H170.112C168.866 0.00138475 167.672 0.502593 166.791 1.39364C165.91 2.28469 165.415 3.4928 165.413 4.75293V399.247C165.416 400.507 165.912 401.714 166.792 402.605C167.673 403.496 168.866 403.997 170.112 404H543.315C544.561 403.999 545.755 403.497 546.636 402.606C547.517 401.715 548.013 400.507 548.014 399.247V4.75293C548.013 3.49279 547.517 2.28466 546.636 1.39361C545.755 0.502558 544.561 0.00135605 543.315 -1.52588e-05ZM546.671 399.247C546.671 400.147 546.317 401.011 545.688 401.647C545.059 402.284 544.205 402.642 543.315 402.642H170.112C169.222 402.642 168.368 402.284 167.739 401.647C167.11 401.011 166.756 400.147 166.756 399.247V4.75293C166.757 3.85299 167.111 2.99034 167.74 2.35398C168.369 1.71763 169.222 1.35946 170.112 1.35797H543.315C544.205 1.35945 545.058 1.7176 545.687 2.35396C546.316 2.99032 546.67 3.85298 546.671 4.75293V399.247Z" fill="#3F3D56"/>
<path d="M219.292 294.692C201.903 294.271 183.262 304.127 178.314 320.994L272.705 317.107C270.92 315.859 269.127 314.626 267.326 313.409C252.843 303.665 236.681 295.113 219.292 294.692Z" fill="#F2F2F2"/>
<path d="M272.705 317.107C285.257 325.884 297.507 335.251 311.493 341.344C346.125 356.431 385.992 349.395 422.431 339.589C458.87 329.783 496.067 317.324 533.441 322.378C554.634 325.244 574.642 333.631 595.099 339.924C615.555 346.216 637.566 350.43 658.205 344.78C678.844 339.131 697.46 321.216 698 299.594C542.186 270.452 397.729 269.586 272.705 317.107Z" fill="#F2F2F2"/>
<path d="M25.9779 325.925C8.58935 325.504 -10.052 335.36 -15 352.228L79.3912 348.341C77.6061 347.093 75.8129 345.86 74.0117 344.643C59.5291 334.899 43.3665 326.346 25.9779 325.925Z" fill="#F2F2F2"/>
<path d="M79.3912 348.341C91.9434 357.118 104.193 366.485 118.179 372.578C152.811 387.665 192.678 380.629 229.117 370.823C265.556 361.017 302.753 348.557 340.127 353.611C361.32 356.477 381.328 364.865 401.785 371.157C422.241 377.45 444.252 381.664 464.891 376.014C485.53 370.364 504.146 352.449 504.686 330.827C348.872 301.685 204.415 300.82 79.3912 348.341Z" fill="#F2F2F2"/>
<path d="M288.622 202.929H191.052C189.66 202.93 188.325 203.49 187.341 204.485C186.357 205.481 185.804 206.831 185.803 208.239V244.198C185.804 245.606 186.357 246.956 187.341 247.952C188.325 248.947 189.66 249.507 191.052 249.508H288.622C290.014 249.507 291.348 248.947 292.332 247.952C293.316 246.956 293.87 245.606 293.871 244.198V208.239C293.87 206.831 293.316 205.481 292.332 204.485C291.348 203.49 290.014 202.93 288.622 202.929Z" fill="#E6E6E6"/>
<path d="M195.536 202.929H192.851V249.508H195.536V202.929Z" fill="#CCCCCC"/>
<path d="M206.946 202.929H204.262V249.508H206.946V202.929Z" fill="#CCCCCC"/>
<path d="M218.357 202.929H215.672V249.508H218.357V202.929Z" fill="#CCCCCC"/>
<path d="M229.768 202.929H227.083V249.508H229.768V202.929Z" fill="#CCCCCC"/>
<path d="M241.179 202.929H238.494V249.508H241.179V202.929Z" fill="#CCCCCC"/>
<path d="M252.59 202.929H249.905V249.508H252.59V202.929Z" fill="#CCCCCC"/>
<path d="M264.001 202.929H261.316V249.508H264.001V202.929Z" fill="#CCCCCC"/>
<path d="M275.412 202.929H272.727V249.508H275.412V202.929Z" fill="#CCCCCC"/>
<path d="M286.823 202.929H284.138V249.508H286.823V202.929Z" fill="#CCCCCC"/>
<path d="M389.339 118.82L377.36 92.7498C376.482 90.8369 375.081 89.218 373.323 88.0835C371.565 86.949 369.523 86.3463 367.438 86.3463H353.323C354.388 84.4887 354.95 82.3801 354.953 80.2328C354.955 78.0856 354.399 75.9755 353.339 74.1149C352.28 72.2544 350.754 70.7091 348.916 69.6347C347.078 68.5602 344.993 67.9945 342.87 67.9945C340.748 67.9945 338.662 68.5602 336.825 69.6347C334.987 70.7091 333.461 72.2544 332.402 74.1149C331.342 75.9755 330.785 78.0856 330.788 80.2328C330.791 82.3801 331.353 84.4887 332.418 86.3463H318.303C316.218 86.3463 314.176 86.949 312.418 88.0835C310.66 89.218 309.259 90.8369 308.38 92.7498L296.402 118.82C295.627 120.507 295.284 122.364 295.406 124.22C295.528 126.076 296.111 127.871 297.099 129.439C298.088 131.007 299.452 132.298 301.064 133.192C302.677 134.086 304.486 134.555 306.324 134.555H339.514V260.847H346.227V134.555H379.416C381.255 134.555 383.064 134.086 384.676 133.192C386.289 132.298 387.652 131.007 388.641 129.439C389.63 127.871 390.213 126.076 390.335 124.22C390.457 122.364 390.114 120.507 389.339 118.82Z" fill="#E6E6E6"/>
<path d="M528.251 202.929H430.681C429.289 202.93 427.954 203.49 426.97 204.485C425.986 205.481 425.433 206.831 425.432 208.239V244.198C425.433 245.606 425.986 246.956 426.97 247.952C427.954 248.947 429.289 249.507 430.681 249.508H528.251C529.642 249.507 530.977 248.947 531.961 247.952C532.945 246.956 533.499 245.606 533.5 244.198V208.239C533.499 206.831 532.945 205.481 531.961 204.485C530.977 203.49 529.642 202.93 528.251 202.929Z" fill="#E6E6E6"/>
<path d="M435.164 202.929H432.48V249.508H435.164V202.929Z" fill="#CCCCCC"/>
<path d="M446.575 202.929H443.89V249.508H446.575V202.929Z" fill="#CCCCCC"/>
<path d="M457.986 202.929H455.301V249.508H457.986V202.929Z" fill="#CCCCCC"/>
<path d="M469.397 202.929H466.712V249.508H469.397V202.929Z" fill="#CCCCCC"/>
<path d="M480.808 202.929H478.123V249.508H480.808V202.929Z" fill="#CCCCCC"/>
<path d="M492.219 202.929H489.534V249.508H492.219V202.929Z" fill="#CCCCCC"/>
<path d="M503.63 202.929H500.945V249.508H503.63V202.929Z" fill="#CCCCCC"/>
<path d="M515.041 202.929H512.356V249.508H515.041V202.929Z" fill="#CCCCCC"/>
<path d="M526.452 202.929H523.767V249.508H526.452V202.929Z" fill="#CCCCCC"/>
<path d="M419.511 202.929H321.941C320.55 202.93 319.215 203.49 318.231 204.485C317.247 205.481 316.693 206.831 316.693 208.239V244.198C316.693 245.606 317.247 246.956 318.231 247.952C319.215 248.947 320.55 249.507 321.941 249.508H419.511C420.903 249.507 422.238 248.947 423.222 247.952C424.206 246.956 424.76 245.606 424.76 244.198V208.239C424.76 206.831 424.206 205.481 423.222 204.485C422.238 203.49 420.903 202.93 419.511 202.929Z" fill="#E6E6E6"/>
<path d="M326.425 202.929H323.74V249.508H326.425V202.929Z" fill="#CCCCCC"/>
<path d="M337.836 202.929H335.151V249.508H337.836V202.929Z" fill="#CCCCCC"/>
<path d="M349.247 202.929H346.562V249.508H349.247V202.929Z" fill="#CCCCCC"/>
<path d="M360.658 202.929H357.973V249.508H360.658V202.929Z" fill="#CCCCCC"/>
<path d="M372.069 202.929H369.384V249.508H372.069V202.929Z" fill="#CCCCCC"/>
<path d="M383.48 202.929H380.795V249.508H383.48V202.929Z" fill="#CCCCCC"/>
<path d="M394.891 202.929H392.206V249.508H394.891V202.929Z" fill="#CCCCCC"/>
<path d="M406.302 202.929H403.617V249.508H406.302V202.929Z" fill="#CCCCCC"/>
<path d="M417.712 202.929H415.028V249.508H417.712V202.929Z" fill="#CCCCCC"/>
<path d="M535.634 156.079H438.064C436.672 156.08 435.338 156.639 434.354 157.635C433.369 158.63 432.816 159.98 432.815 161.388V197.348C432.816 198.756 433.369 200.106 434.354 201.101C435.338 202.097 436.672 202.657 438.064 202.658H535.634C537.026 202.657 538.361 202.097 539.345 201.101C540.329 200.106 540.882 198.756 540.883 197.348V161.388C540.882 159.98 540.329 158.63 539.345 157.635C538.361 156.639 537.026 156.08 535.634 156.079Z" fill="#E6E6E6"/>
<path d="M442.548 156.079H439.863V202.658H442.548V156.079Z" fill="#CCCCCC"/>
<path d="M453.959 156.079H451.274V202.658H453.959V156.079Z" fill="#CCCCCC"/>
<path d="M465.37 156.079H462.685V202.658H465.37V156.079Z" fill="#CCCCCC"/>
<path d="M476.781 156.079H474.096V202.658H476.781V156.079Z" fill="#CCCCCC"/>
<path d="M488.192 156.079H485.507V202.658H488.192V156.079Z" fill="#CCCCCC"/>
<path d="M499.602 156.079H496.918V202.658H499.602V156.079Z" fill="#CCCCCC"/>
<path d="M511.013 156.079H508.328V202.658H511.013V156.079Z" fill="#CCCCCC"/>
<path d="M522.424 156.079H519.739V202.658H522.424V156.079Z" fill="#CCCCCC"/>
<path d="M533.835 156.079H531.15V202.658H533.835V156.079Z" fill="#CCCCCC"/>
<path d="M506.771 206.324H409.201C407.809 206.325 406.475 206.885 405.491 207.88C404.507 208.876 403.953 210.226 403.952 211.634V247.593C403.953 249.001 404.507 250.351 405.491 251.347C406.475 252.342 407.809 252.902 409.201 252.903H506.771C508.163 252.902 509.498 252.342 510.482 251.347C511.466 250.351 512.019 249.001 512.02 247.593V211.634C512.019 210.226 511.466 208.876 510.482 207.88C509.498 206.885 508.163 206.325 506.771 206.324Z" fill="#99DDFF"/>
<path d="M413.685 206.324H411V252.903H413.685V206.324Z" fill="#3F3D56"/>
<path d="M425.096 206.324H422.411V252.903H425.096V206.324Z" fill="#3F3D56"/>
<path d="M436.507 206.324H433.822V252.903H436.507V206.324Z" fill="#3F3D56"/>
<path d="M447.918 206.324H445.233V252.903H447.918V206.324Z" fill="#3F3D56"/>
<path d="M459.329 206.324H456.644V252.903H459.329V206.324Z" fill="#3F3D56"/>
<path d="M470.74 206.324H468.055V252.903H470.74V206.324Z" fill="#3F3D56"/>
<path d="M482.151 206.324H479.466V252.903H482.151V206.324Z" fill="#3F3D56"/>
<path d="M493.561 206.324H490.876V252.903H493.561V206.324Z" fill="#3F3D56"/>
<path d="M504.972 206.324H502.287V252.903H504.972V206.324Z" fill="#3F3D56"/>
<path d="M383.936 206.324H286.366C284.974 206.325 283.64 206.885 282.656 207.88C281.672 208.876 281.118 210.226 281.117 211.634V247.593C281.118 249.001 281.672 250.351 282.656 251.347C283.64 252.342 284.974 252.902 286.366 252.903H383.936C385.328 252.902 386.663 252.342 387.647 251.347C388.631 250.351 389.184 249.001 389.185 247.593V211.634C389.184 210.226 388.631 208.876 387.647 207.88C386.663 206.885 385.328 206.325 383.936 206.324Z" fill="#99DDFF"/>
<path d="M290.85 206.324H288.165V252.903H290.85V206.324Z" fill="#3F3D56"/>
<path d="M302.261 206.324H299.576V252.903H302.261V206.324Z" fill="#3F3D56"/>
<path d="M313.672 206.324H310.987V252.903H313.672V206.324Z" fill="#3F3D56"/>
<path d="M325.083 206.324H322.398V252.903H325.083V206.324Z" fill="#3F3D56"/>
<path d="M336.494 206.324H333.809V252.903H336.494V206.324Z" fill="#3F3D56"/>
<path d="M347.905 206.324H345.22V252.903H347.905V206.324Z" fill="#3F3D56"/>
<path d="M359.316 206.324H356.631V252.903H359.316V206.324Z" fill="#3F3D56"/>
<path d="M370.726 206.324H368.042V252.903H370.726V206.324Z" fill="#3F3D56"/>
<path d="M382.137 206.324H379.452V252.903H382.137V206.324Z" fill="#3F3D56"/>
<path d="M420.854 159.474H323.284C321.892 159.475 320.558 160.034 319.573 161.03C318.589 162.025 318.036 163.375 318.035 164.783V200.743C318.036 202.151 318.589 203.501 319.573 204.496C320.558 205.492 321.892 206.052 323.284 206.052H420.854C422.246 206.052 423.58 205.492 424.564 204.496C425.549 203.501 426.102 202.151 426.103 200.743V164.783C426.102 163.375 425.549 162.025 424.564 161.03C423.58 160.034 422.246 159.475 420.854 159.474Z" fill="#99DDFF"/>
<path d="M327.768 159.474H325.083V206.053H327.768V159.474Z" fill="#3F3D56"/>
<path d="M339.179 159.474H336.494V206.053H339.179V159.474Z" fill="#3F3D56"/>
<path d="M350.59 159.474H347.905V206.053H350.59V159.474Z" fill="#3F3D56"/>
<path d="M362 159.474H359.316V206.053H362V159.474Z" fill="#3F3D56"/>
<path d="M373.411 159.474H370.726V206.053H373.411V159.474Z" fill="#3F3D56"/>
<path d="M384.822 159.474H382.137V206.053H384.822V159.474Z" fill="#3F3D56"/>
<path d="M396.233 159.474H393.548V206.053H396.233V159.474Z" fill="#3F3D56"/>
<path d="M407.644 159.474H404.959V206.053H407.644V159.474Z" fill="#3F3D56"/>
<path d="M419.055 159.474H416.37V206.053H419.055V159.474Z" fill="#3F3D56"/>
<path d="M253.046 206.324H155.477C154.085 206.325 152.75 206.885 151.766 207.88C150.782 208.876 150.228 210.226 150.228 211.634V247.593C150.228 249.001 150.782 250.351 151.766 251.347C152.75 252.342 154.085 252.902 155.477 252.903H253.046C254.438 252.902 255.773 252.342 256.757 251.347C257.741 250.351 258.295 249.001 258.295 247.593V211.634C258.295 210.226 257.741 208.876 256.757 207.88C255.773 206.885 254.438 206.325 253.046 206.324Z" fill="#99DDFF"/>
<path d="M159.96 206.324H157.275V252.903H159.96V206.324Z" fill="#3F3D56"/>
<path d="M171.371 206.324H168.686V252.903H171.371V206.324Z" fill="#3F3D56"/>
<path d="M182.782 206.324H180.097V252.903H182.782V206.324Z" fill="#3F3D56"/>
<path d="M194.193 206.324H191.508V252.903H194.193V206.324Z" fill="#3F3D56"/>
<path d="M205.604 206.324H202.919V252.903H205.604V206.324Z" fill="#3F3D56"/>
<path d="M217.015 206.324H214.33V252.903H217.015V206.324Z" fill="#3F3D56"/>
<path d="M228.426 206.324H225.741V252.903H228.426V206.324Z" fill="#3F3D56"/>
<path d="M239.837 206.324H237.152V252.903H239.837V206.324Z" fill="#3F3D56"/>
<path d="M251.248 206.324H248.563V252.903H251.248V206.324Z" fill="#3F3D56"/>
<path d="M277.211 159.474H179.641C178.249 159.475 176.914 160.034 175.93 161.03C174.946 162.025 174.393 163.375 174.392 164.783V200.743C174.393 202.151 174.946 203.501 175.93 204.496C176.914 205.492 178.249 206.052 179.641 206.052H277.211C278.603 206.052 279.937 205.492 280.921 204.496C281.906 203.501 282.459 202.151 282.46 200.743V164.783C282.459 163.375 281.906 162.025 280.921 161.03C279.937 160.034 278.603 159.475 277.211 159.474Z" fill="#99DDFF"/>
<path d="M184.125 159.474H181.44V206.053H184.125V159.474Z" fill="#3F3D56"/>
<path d="M195.536 159.474H192.851V206.053H195.536V159.474Z" fill="#3F3D56"/>
<path d="M206.946 159.474H204.262V206.053H206.946V159.474Z" fill="#3F3D56"/>
<path d="M218.357 159.474H215.672V206.053H218.357V159.474Z" fill="#3F3D56"/>
<path d="M229.768 159.474H227.083V206.053H229.768V159.474Z" fill="#3F3D56"/>
<path d="M241.179 159.474H238.494V206.053H241.179V159.474Z" fill="#3F3D56"/>
<path d="M252.59 159.474H249.905V206.053H252.59V159.474Z" fill="#3F3D56"/>
<path d="M264.001 159.474H261.316V206.053H264.001V159.474Z" fill="#3F3D56"/>
<path d="M275.412 159.474H272.727V206.053H275.412V159.474Z" fill="#3F3D56"/>
<path d="M592.673 255.653C592.511 255.066 592.303 254.493 592.051 253.94L580.072 227.869C579.193 225.956 577.792 224.337 576.034 223.203C574.276 222.068 572.234 221.466 570.149 221.466H521.015C518.929 221.466 516.888 222.068 515.13 223.203C513.372 224.337 511.971 225.956 511.092 227.869L501.243 249.304H220.433L210.896 228.548C210.017 226.635 208.616 225.016 206.858 223.882C205.1 222.747 203.058 222.145 200.973 222.145H151.838C149.953 222.145 148.099 222.64 146.458 223.581L138.197 208.658C137.651 207.672 136.798 206.898 135.771 206.455C134.744 206.013 133.601 205.928 132.52 206.213C131.44 206.498 130.484 207.137 129.801 208.031C129.119 208.925 128.748 210.022 128.748 211.152V328.351C128.748 330.097 129.088 331.826 129.749 333.439C130.409 335.052 131.378 336.518 132.598 337.753C133.819 338.987 135.268 339.967 136.863 340.635C138.457 341.303 140.167 341.647 141.893 341.647H517.9C519.651 341.647 521.384 341.293 522.998 340.606C524.612 339.92 526.074 338.913 527.298 337.647L590.863 271.897C592.928 269.791 594.23 267.041 594.558 264.093C594.887 261.145 594.223 258.171 592.673 255.653Z" fill="#3F3D56"/>
<path d="M526.518 247.607H520.344C519.027 247.605 517.765 247.075 516.833 246.133C515.902 245.191 515.378 243.914 515.376 242.581V235.657C515.378 234.325 515.902 233.048 516.833 232.106C517.765 231.163 519.027 230.634 520.344 230.632H526.518C527.835 230.634 529.098 231.163 530.029 232.106C530.961 233.048 531.484 234.325 531.486 235.657V242.581C531.484 243.914 530.96 245.191 530.029 246.133C529.098 247.075 527.835 247.605 526.518 247.607Z" fill="white"/>
<path d="M548.668 247.607H542.495C541.178 247.605 539.915 247.075 538.984 246.133C538.052 245.191 537.528 243.914 537.527 242.581V235.657C537.528 234.325 538.052 233.048 538.984 232.106C539.915 231.163 541.178 230.634 542.495 230.632H548.668C549.986 230.634 551.248 231.163 552.18 232.106C553.111 233.048 553.635 234.325 553.636 235.657V242.581C553.635 243.914 553.111 245.191 552.18 246.133C551.248 247.075 549.986 247.605 548.668 247.607Z" fill="white"/>
<path d="M570.819 247.607H564.646C563.328 247.605 562.066 247.075 561.134 246.133C560.203 245.191 559.679 243.914 559.678 242.581V235.657C559.679 234.325 560.203 233.048 561.134 232.106C562.066 231.163 563.328 230.634 564.646 230.632H570.819C572.136 230.634 573.399 231.163 574.33 232.106C575.262 233.048 575.786 234.325 575.787 235.657V242.581C575.786 243.914 575.262 245.191 574.33 246.133C573.399 247.075 572.136 247.605 570.819 247.607Z" fill="white"/>
<path d="M323.807 112.487H317.633C316.316 112.486 315.053 111.956 314.122 111.014C313.191 110.072 312.667 108.794 312.665 107.462V100.538C312.667 99.2058 313.191 97.9284 314.122 96.9863C315.053 96.0442 316.316 95.5142 317.633 95.5127H323.807C325.124 95.5142 326.387 96.0442 327.318 96.9863C328.249 97.9284 328.773 99.2058 328.775 100.538V107.462C328.773 108.794 328.249 110.072 327.318 111.014C326.386 111.956 325.124 112.486 323.807 112.487Z" fill="white"/>
<path d="M345.957 112.487H339.784C338.467 112.486 337.204 111.956 336.272 111.014C335.341 110.072 334.817 108.794 334.816 107.462V100.538C334.817 99.2058 335.341 97.9284 336.272 96.9863C337.204 96.0442 338.467 95.5142 339.784 95.5127H345.957C347.274 95.5142 348.537 96.0442 349.468 96.9863C350.4 97.9284 350.924 99.2058 350.925 100.538V107.462C350.924 108.794 350.4 110.072 349.468 111.014C348.537 111.956 347.274 112.486 345.957 112.487Z" fill="white"/>
<path d="M368.108 112.487H361.934C360.617 112.486 359.354 111.956 358.423 111.014C357.492 110.072 356.968 108.794 356.966 107.462V100.538C356.968 99.2058 357.492 97.9284 358.423 96.9863C359.354 96.0442 360.617 95.5142 361.934 95.5127H368.108C369.425 95.5142 370.688 96.0442 371.619 96.9863C372.55 97.9284 373.074 99.2058 373.076 100.538V107.462C373.074 108.794 372.55 110.072 371.619 111.014C370.688 111.956 369.425 112.486 368.108 112.487Z" fill="white"/>
<path d="M157.342 248.286H151.168C149.851 248.284 148.588 247.754 147.657 246.812C146.726 245.87 146.202 244.593 146.2 243.26V236.336C146.202 235.004 146.726 233.727 147.657 232.785C148.588 231.842 149.851 231.313 151.168 231.311H157.342C158.659 231.313 159.922 231.842 160.853 232.785C161.784 233.727 162.308 235.004 162.31 236.336V243.26C162.308 244.593 161.784 245.87 160.853 246.812C159.922 247.754 158.659 248.284 157.342 248.286Z" fill="white"/>
<path d="M179.492 248.286H173.319C172.002 248.284 170.739 247.754 169.808 246.812C168.876 245.87 168.352 244.593 168.351 243.26V236.336C168.352 235.004 168.876 233.727 169.808 232.785C170.739 231.842 172.002 231.313 173.319 231.311H179.492C180.809 231.313 182.072 231.842 183.004 232.785C183.935 233.727 184.459 235.004 184.46 236.336V243.26C184.459 244.593 183.935 245.87 183.004 246.812C182.072 247.754 180.809 248.284 179.492 248.286Z" fill="white"/>
<path d="M201.643 248.286H195.469C194.152 248.284 192.889 247.754 191.958 246.812C191.027 245.87 190.503 244.593 190.501 243.26V236.336C190.503 235.004 191.027 233.727 191.958 232.785C192.889 231.842 194.152 231.313 195.469 231.311H201.643C202.96 231.313 204.223 231.842 205.154 232.785C206.085 233.727 206.609 235.004 206.611 236.336V243.26C206.609 244.593 206.085 245.87 205.154 246.812C204.223 247.754 202.96 248.284 201.643 248.286Z" fill="white"/>
<path d="M119.031 319.794C101.642 319.373 83.0009 329.228 78.0529 346.096L172.444 342.209C170.659 340.961 168.866 339.728 167.065 338.511C152.582 328.767 136.419 320.215 119.031 319.794Z" fill="#99DDFF"/>
<path d="M172.444 342.209C184.996 350.986 197.246 360.353 211.232 366.446C245.864 381.533 285.73 374.497 322.17 364.691C358.609 354.885 395.806 342.425 433.18 347.48C454.373 350.346 474.381 358.733 494.838 365.026C515.294 371.318 537.305 375.532 557.944 369.882C578.583 364.233 597.199 346.317 597.739 324.696C441.925 295.554 297.468 294.688 172.444 342.209Z" fill="#99DDFF"/>
<path d="M499.884 58.9553C509.782 58.9553 517.806 50.8384 517.806 40.8257C517.806 30.813 509.782 22.6961 499.884 22.6961C489.986 22.6961 481.962 30.813 481.962 40.8257C481.962 50.8384 489.986 58.9553 499.884 58.9553Z" fill="#FD6584"/>
<path d="M539.996 32.2411C539.49 30.5646 538.511 29.0742 537.179 27.9535C535.847 26.8327 534.22 26.1305 532.498 25.9332C532.458 25.9298 532.417 25.9298 532.377 25.9332C532.329 25.918 532.28 25.9066 532.229 25.8993C526.229 25.1116 519.557 27.0264 515.066 31.1954L515.017 31.2411C513.879 32.3062 512.49 33.0591 510.983 33.4283C509.477 33.7974 507.902 33.7706 506.408 33.3504C505.587 33.121 504.734 33.0262 503.883 33.0694C502.067 33.1909 500.332 33.8761 498.914 35.0317C497.497 36.1872 496.466 37.7569 495.963 39.5266C495.908 39.7428 495.923 39.9713 496.006 40.1781C496.09 40.3849 496.237 40.5588 496.426 40.6741C496.966 41.1412 497.608 41.4716 498.299 41.6383C499.782 41.9574 501.279 42.2494 502.776 42.5142C505.702 43.0302 508.645 43.4489 511.603 43.7703C513.556 43.9808 515.514 44.1483 517.476 44.2728C521.53 44.5308 525.604 44.5919 529.665 44.4629C531.679 44.395 533.612 44.3271 535.451 43.4308C536.792 42.7641 537.937 41.7554 538.774 40.5043C539.562 39.301 540.08 37.9374 540.291 36.5098C540.502 35.0821 540.401 33.625 539.996 32.2411Z" fill="#E6E6E6"/>
<path d="M503.125 58.6538C503.091 57.8942 502.965 57.1416 502.749 56.4132C502.241 54.7368 501.261 53.247 499.927 52.1264C498.594 51.0059 496.967 50.3035 495.245 50.1053C495.207 50.1019 495.169 50.1019 495.131 50.1053C495.08 50.0908 495.028 50.0794 494.976 50.0714C491.655 49.6599 488.285 50.0103 485.116 51.0967C482.394 51.9952 479.89 53.4646 477.768 55.409C476.63 56.4752 475.242 57.2291 473.735 57.5991C472.228 57.969 470.652 57.9426 469.158 57.5223C468.336 57.293 467.482 57.1982 466.63 57.2415C464.814 57.363 463.078 58.0482 461.661 59.2038C460.244 60.3593 459.213 61.929 458.71 63.6987C458.657 63.915 458.674 64.1424 458.757 64.3484C458.84 64.5545 458.986 64.7287 459.173 64.8462C459.714 65.312 460.355 65.6423 461.046 65.8104C462.536 66.1295 464.026 66.4215 465.529 66.6863C468.456 67.2023 471.396 67.621 474.349 67.9424C480.35 68.594 486.387 68.8254 492.419 68.635C494.426 68.5671 496.366 68.4992 498.205 67.6029C499.543 66.936 500.686 65.9272 501.521 64.6765C502.697 62.9028 503.261 60.7854 503.125 58.6538Z" fill="#E6E6E6"/>
<path d="M509.778 102.955C509.564 103.9 509.715 104.891 510.198 105.728C510.481 106.154 510.896 106.472 511.377 106.633C511.859 106.794 512.379 106.789 512.857 106.618C514.735 106.028 516.587 105.338 518.448 104.698C518.702 104.621 518.917 104.448 519.048 104.214C519.179 103.981 519.216 103.705 519.152 103.445C519.078 103.186 518.908 102.966 518.676 102.833C518.444 102.7 518.17 102.665 517.913 102.734L513.261 104.333C512.911 104.453 512.561 104.59 512.203 104.689C512.166 104.7 512.029 104.73 512.037 104.73C512.054 104.728 512.16 104.739 512.042 104.731C511.975 104.711 511.976 104.715 512.044 104.745L511.955 104.693C512.036 104.762 511.945 104.684 511.917 104.655C511.892 104.63 511.82 104.529 511.876 104.612C511.835 104.553 511.8 104.49 511.77 104.425C511.82 104.535 511.727 104.263 511.721 104.225C511.683 103.801 511.707 103.373 511.792 102.955C511.791 102.685 511.684 102.427 511.496 102.236C511.307 102.046 511.052 101.938 510.785 101.937C510.52 101.943 510.268 102.053 510.081 102.242C509.893 102.432 509.785 102.687 509.778 102.955Z" fill="#3F3D56"/>
<path d="M434.814 106.531L439.777 112.861C440.409 113.667 441.762 112.795 441.46 111.87C440.841 109.98 442.976 108.926 444.45 108.615C446.406 108.202 448.368 108.269 450.223 107.419C451.402 106.879 450.38 105.123 449.207 105.66C447.037 106.654 444.506 106.199 442.308 107.166C440.343 108.031 438.79 110.187 439.518 112.412L441.201 111.421L436.238 105.091C436.049 104.902 435.793 104.796 435.526 104.796C435.26 104.796 435.004 104.902 434.814 105.091C434.631 105.285 434.529 105.543 434.529 105.811C434.529 106.08 434.631 106.337 434.814 106.531Z" fill="#3F3D56"/>
<path d="M424.746 32.5213L429.709 38.851C430.34 39.6565 431.694 38.7845 431.391 37.8601C430.773 35.9696 432.908 34.9162 434.382 34.6049C436.337 34.1919 438.3 34.2589 440.155 33.4087C441.334 32.8687 440.311 31.1126 439.139 31.6499C436.968 32.6443 434.437 32.1885 432.239 33.1558C430.275 34.0204 428.722 36.1766 429.45 38.4016L431.132 37.4107L426.17 31.081C425.98 30.8917 425.724 30.7856 425.458 30.7856C425.192 30.7856 424.936 30.8917 424.746 31.081C424.563 31.2749 424.46 31.5329 424.46 31.8012C424.46 32.0695 424.563 32.3274 424.746 32.5213Z" fill="#3F3D56"/>
</g>
<defs>
<clipPath id="clip0_32_467">
<rect width="713" height="404" fill="white" transform="translate(-15)"/>
</clipPath>
</defs>
</svg>
