<svg width="640" height="393" viewBox="0 0 640 393" fill="none" xmlns="http://www.w3.org/2000/svg">
<g clip-path="url(#clip0_24_107)">
<path d="M330.38 11.2179C333.281 11.2179 335.633 8.70671 335.633 5.60896C335.633 2.51122 333.281 0 330.38 0C327.479 0 325.127 2.51122 325.127 5.60896C325.127 8.70671 327.479 11.2179 330.38 11.2179Z" fill="#F2F2F2"/>
<path d="M330.38 33.5721C333.281 33.5721 335.633 31.0608 335.633 27.9631C335.633 24.8653 333.281 22.3541 330.38 22.3541C327.479 22.3541 325.127 24.8653 325.127 27.9631C325.127 31.0608 327.479 33.5721 330.38 33.5721Z" fill="#F2F2F2"/>
<path d="M352.314 11.2179C355.215 11.2179 357.567 8.70671 357.567 5.60896C357.567 2.51122 355.215 0 352.314 0C349.412 0 347.06 2.51122 347.06 5.60896C347.06 8.70671 349.412 11.2179 352.314 11.2179Z" fill="#F2F2F2"/>
<path d="M352.314 33.5721C355.215 33.5721 357.567 31.0608 357.567 27.9631C357.567 24.8653 355.215 22.3541 352.314 22.3541C349.412 22.3541 347.06 24.8653 347.06 27.9631C347.06 31.0608 349.412 33.5721 352.314 33.5721Z" fill="#F2F2F2"/>
<path d="M374.248 11.2179C377.149 11.2179 379.501 8.70671 379.501 5.60896C379.501 2.51122 377.149 0 374.248 0C371.346 0 368.994 2.51122 368.994 5.60896C368.994 8.70671 371.346 11.2179 374.248 11.2179Z" fill="#F2F2F2"/>
<path d="M374.248 33.5721C377.149 33.5721 379.501 31.0608 379.501 27.9631C379.501 24.8653 377.149 22.3541 374.248 22.3541C371.346 22.3541 368.994 24.8653 368.994 27.9631C368.994 31.0608 371.346 33.5721 374.248 33.5721Z" fill="#F2F2F2"/>
<path d="M374.248 55.9261C377.149 55.9261 379.501 53.4148 379.501 50.3171C379.501 47.2193 377.149 44.7081 374.248 44.7081C371.346 44.7081 368.994 47.2193 368.994 50.3171C368.994 53.4148 371.346 55.9261 374.248 55.9261Z" fill="#F2F2F2"/>
<path d="M374.248 78.2802C377.149 78.2802 379.501 75.769 379.501 72.6712C379.501 69.5735 377.149 67.0623 374.248 67.0623C371.346 67.0623 368.994 69.5735 368.994 72.6712C368.994 75.769 371.346 78.2802 374.248 78.2802Z" fill="#F2F2F2"/>
<path d="M396.181 11.2179C399.083 11.2179 401.435 8.70671 401.435 5.60896C401.435 2.51122 399.083 0 396.181 0C393.28 0 390.928 2.51122 390.928 5.60896C390.928 8.70671 393.28 11.2179 396.181 11.2179Z" fill="#F2F2F2"/>
<path d="M396.181 33.5721C399.083 33.5721 401.435 31.0608 401.435 27.9631C401.435 24.8653 399.083 22.3541 396.181 22.3541C393.28 22.3541 390.928 24.8653 390.928 27.9631C390.928 31.0608 393.28 33.5721 396.181 33.5721Z" fill="#F2F2F2"/>
<path d="M396.181 55.9261C399.083 55.9261 401.435 53.4148 401.435 50.3171C401.435 47.2193 399.083 44.7081 396.181 44.7081C393.28 44.7081 390.928 47.2193 390.928 50.3171C390.928 53.4148 393.28 55.9261 396.181 55.9261Z" fill="#F2F2F2"/>
<path d="M396.181 78.2802C399.083 78.2802 401.435 75.769 401.435 72.6712C401.435 69.5735 399.083 67.0623 396.181 67.0623C393.28 67.0623 390.928 69.5735 390.928 72.6712C390.928 75.769 393.28 78.2802 396.181 78.2802Z" fill="#F2F2F2"/>
<path d="M418.115 11.2179C421.016 11.2179 423.368 8.70671 423.368 5.60896C423.368 2.51122 421.016 0 418.115 0C415.214 0 412.862 2.51122 412.862 5.60896C412.862 8.70671 415.214 11.2179 418.115 11.2179Z" fill="#F2F2F2"/>
<path d="M418.115 33.5721C421.016 33.5721 423.368 31.0608 423.368 27.9631C423.368 24.8653 421.016 22.3541 418.115 22.3541C415.214 22.3541 412.862 24.8653 412.862 27.9631C412.862 31.0608 415.214 33.5721 418.115 33.5721Z" fill="#F2F2F2"/>
<path d="M440.049 11.2179C442.95 11.2179 445.302 8.70671 445.302 5.60896C445.302 2.51122 442.95 0 440.049 0C437.147 0 434.795 2.51122 434.795 5.60896C434.795 8.70671 437.147 11.2179 440.049 11.2179Z" fill="#F2F2F2"/>
<path d="M440.049 33.5721C442.95 33.5721 445.302 31.0608 445.302 27.9631C445.302 24.8653 442.95 22.3541 440.049 22.3541C437.147 22.3541 434.795 24.8653 434.795 27.9631C434.795 31.0608 437.147 33.5721 440.049 33.5721Z" fill="#F2F2F2"/>
<path d="M600.427 295.985H561.426C561.426 297.182 521.23 298.154 521.23 298.154C520.6 298.661 520.025 299.243 519.516 299.888C517.99 301.833 517.155 304.29 517.16 306.827V308.562C517.161 311.437 518.231 314.194 520.136 316.227C522.04 318.26 524.622 319.402 527.315 319.404H600.427C603.12 319.401 605.701 318.258 607.605 316.225C609.509 314.193 610.579 311.436 610.582 308.562V306.827C610.578 303.953 609.507 301.198 607.603 299.165C605.7 297.133 603.119 295.989 600.427 295.985Z" fill="#3F3D56"/>
<path d="M569.554 318.973H558.993V391.829H569.554V318.973Z" fill="#3F3D56"/>
<path d="M599.611 391.433C599.611 392.651 583.608 391.904 563.867 391.904C544.126 391.904 528.123 392.651 528.123 391.433C528.123 390.215 544.126 380.554 563.867 380.554C583.608 380.554 599.611 390.215 599.611 391.433Z" fill="#3F3D56"/>
<path d="M511.056 381.85L501.097 381.85L496.358 340.835L511.058 340.836L511.056 381.85Z" fill="#FFB8B8"/>
<path d="M493.982 378.812H513.19V391.723H481.889C481.889 388.299 483.163 385.015 485.431 382.593C487.699 380.172 490.775 378.812 493.982 378.812Z" fill="#2F2E41"/>
<path d="M495.509 375.915L486.007 372.731L492.987 332.084L507.011 336.783L495.509 375.915Z" fill="#FFB8B8"/>
<path d="M480.071 367.559L498.398 373.699L494.777 386.018L464.912 376.012C465.387 374.394 466.157 372.892 467.176 371.592C468.195 370.292 469.444 369.218 470.852 368.433C472.259 367.648 473.798 367.167 475.38 367.017C476.962 366.867 478.556 367.051 480.071 367.559Z" fill="#2F2E41"/>
<path d="M573.755 288.876C573.525 286.809 573.111 284.77 572.52 282.787L570.659 280.289L565.818 273.801L565.607 273.81C565.249 273.827 563.762 273.914 561.464 274.105H561.439C560.017 274.226 558.279 274.383 556.305 274.582C555.785 274.643 555.241 274.695 554.68 274.755V283.81H564.835C565.328 283.811 565.805 284.003 566.175 284.351C566.546 284.699 566.786 285.179 566.849 285.701C566.857 285.797 566.866 285.883 566.866 285.979C566.866 286.554 566.651 287.105 566.271 287.512C565.89 287.918 565.373 288.147 564.835 288.147H505.857C505.106 288.68 504.384 289.259 503.696 289.882C501.619 291.599 500.121 293.992 499.431 296.699C495.987 312.866 489.708 343.015 487.855 351.87C487.721 352.537 487.752 353.23 487.944 353.881C488.136 354.532 488.484 355.118 488.952 355.582C489.298 355.927 489.704 356.195 490.146 356.372L497.474 359.303C497.775 359.422 498.089 359.501 498.408 359.538C498.449 359.538 498.481 359.546 498.522 359.546C498.597 359.553 498.673 359.556 498.749 359.555C499.49 359.552 500.213 359.31 500.823 358.861C501.433 358.412 501.902 357.778 502.169 357.04L507.953 340.838L516.865 315.859L520.391 305.98C524.477 307.003 558.758 315.104 570.237 302.051C571.369 300.765 572.263 299.26 572.869 297.618C573.835 294.827 574.139 291.823 573.755 288.876Z" fill="#2F2E41"/>
<path d="M583.698 291.235C583.519 290.463 583.316 289.665 583.08 288.858L576.378 279.873L576.167 279.881C575.745 279.907 573.738 280.02 570.659 280.289C567.166 280.601 562.284 281.104 556.8 281.894C556.638 281.911 556.468 281.937 556.305 281.963C555.769 282.041 555.224 282.119 554.68 282.206V283.81H564.835C565.328 283.811 565.805 284.003 566.175 284.351C566.546 284.699 566.786 285.179 566.849 285.701C566.857 285.797 566.866 285.883 566.866 285.979C566.865 286.554 566.651 287.105 566.271 287.512C565.89 287.918 565.373 288.147 564.835 288.147H528.945C527.377 288.694 525.866 289.266 524.42 289.882C516.832 293.091 511.154 297.298 509.992 302.77C509.602 304.609 509.172 306.63 508.717 308.781C507.027 316.778 504.972 326.57 503.112 335.469V335.478C502.73 337.316 502.348 339.103 501.982 340.838C500.431 348.297 499.115 354.62 498.416 357.942C498.4 358.037 498.384 358.124 498.367 358.219V358.237C498.286 358.909 498.364 359.591 498.595 360.223L498.603 360.231V360.24C498.826 360.845 499.19 361.379 499.659 361.793C499.973 362.069 500.327 362.289 500.707 362.443L508.035 365.375C508.443 365.538 508.874 365.623 509.31 365.626C509.92 365.628 510.521 365.464 511.056 365.149C511.824 364.705 512.418 363.982 512.73 363.111L528.506 318.911L530.951 312.051C535.037 313.074 569.319 321.167 580.798 308.122C583.065 305.501 584.359 302.087 584.437 298.52C584.517 296.067 584.268 293.613 583.698 291.235Z" fill="#2F2E41"/>
<path d="M582.796 214.719C582.666 214.554 582.528 214.389 582.382 214.233C580.218 211.804 577.546 209.957 574.585 208.843C571.624 207.729 568.458 207.38 565.346 207.823C562.632 208.204 559.943 208.769 557.296 209.515C553.877 210.453 550.747 212.327 548.214 214.953C546.241 216.995 544.687 219.453 543.651 222.17C542.615 224.888 542.119 227.805 542.194 230.738C542.227 231.926 542.235 233.141 542.219 234.372C542.219 234.945 542.21 235.526 542.203 236.107H550.212C550.56 236.106 550.906 236.15 551.244 236.237C552.221 236.487 553.092 237.08 553.715 237.922C554.339 238.763 554.678 239.804 554.68 240.877V281.226C555.225 281.391 555.769 281.555 556.305 281.729C556.476 281.789 556.638 281.842 556.8 281.894C556.987 281.954 557.174 282.015 557.353 282.076C559.002 282.622 560.613 283.2 562.186 283.81H564.835C565.328 283.811 565.805 284.003 566.175 284.351C566.546 284.699 566.786 285.179 566.849 285.701C567.402 285.935 567.938 286.17 568.466 286.404C570.342 287.236 572.121 288.069 573.754 288.876C575.956 289.951 577.914 290.975 579.555 291.868C580.071 292.149 580.641 292.297 581.22 292.302C581.98 292.299 582.72 292.038 583.332 291.556C583.459 291.456 583.581 291.349 583.698 291.235C584.132 290.8 584.461 290.258 584.655 289.656C584.849 289.055 584.902 288.411 584.811 287.783C583.972 280.97 583.727 274.088 584.08 267.227C584.307 261.459 584.794 255.544 585.428 249.828C585.769 246.732 586.151 243.696 586.549 240.773C586.931 237.98 587.337 235.3 587.735 232.768C588.258 229.556 588.084 226.26 587.228 223.131C586.371 220.002 584.855 217.125 582.796 214.719Z" fill="#99DDFF"/>
<path d="M549.498 215.43C549.081 215.239 548.652 215.079 548.214 214.953C546.049 214.33 543.747 214.56 541.727 215.6C539.708 216.64 538.106 218.42 537.215 220.616L531.634 234.372L530.935 236.107H550.212C550.56 236.106 550.906 236.15 551.244 236.237L551.894 234.633L554.363 228.544C555.344 226.116 555.383 223.371 554.471 220.912C553.558 218.454 551.77 216.482 549.498 215.43Z" fill="#99DDFF"/>
<path d="M566.83 201.051C577.849 201.051 586.782 191.513 586.782 179.748C586.782 167.983 577.849 158.445 566.83 158.445C555.81 158.445 546.877 167.983 546.877 179.748C546.877 191.513 555.81 201.051 566.83 201.051Z" fill="#FFB8B8"/>
<path d="M586.549 240.773L575.16 241.103L574.331 249.646L574.144 251.624L556.305 260.176L554.68 260.956V276.161L556.305 275.666L561.439 274.105H561.463L584.079 267.227L584.339 267.149C586.167 266.586 587.775 265.408 588.926 263.79C590.076 262.173 590.707 260.203 590.725 258.172L590.781 248.085L590.83 240.652L586.549 240.773Z" fill="#FFB8B8"/>
<path d="M590.254 223.878C590.178 222.57 589.863 221.291 589.325 220.114C588.786 218.936 588.036 217.884 587.117 217.016C585.261 215.263 582.828 214.37 580.355 214.532C577.882 214.694 575.57 215.899 573.928 217.881C572.287 219.863 571.45 222.46 571.602 225.101L572.845 246.749C572.878 247.319 573.029 247.874 573.286 248.374C573.543 248.875 573.9 249.309 574.331 249.646C575.018 250.193 575.865 250.46 576.72 250.401L585.428 249.828L588.068 249.655C588.549 249.63 589.02 249.5 589.453 249.275C589.886 249.05 590.272 248.734 590.587 248.345C590.657 248.263 590.722 248.176 590.782 248.085C591.298 247.347 591.551 246.437 591.496 245.518L590.254 223.878Z" fill="#99DDFF"/>
<path d="M557.353 282.076H556.305V281.963C555.769 282.041 555.225 282.119 554.68 282.206V283.811H562.186C560.61 283.203 558.999 282.625 557.353 282.076ZM557.353 282.076H556.305V281.963C555.769 282.041 555.225 282.119 554.68 282.206V283.811H562.186C560.61 283.203 558.999 282.625 557.353 282.076ZM564.835 282.076H556.305V240.877C556.302 239.467 555.87 238.096 555.075 236.969C554.28 235.843 553.163 235.023 551.894 234.633C551.349 234.457 550.782 234.369 550.212 234.372H477.912C476.297 234.374 474.748 235.06 473.606 236.28C472.464 237.499 471.822 239.153 471.82 240.877V283.377C471.82 285.102 472.462 286.756 473.605 287.976C474.747 289.196 476.297 289.881 477.912 289.882H564.835C565.735 289.88 566.603 289.525 567.272 288.883C567.942 288.241 568.367 287.359 568.466 286.404C568.482 286.263 568.491 286.121 568.491 285.979C568.489 284.944 568.103 283.952 567.418 283.221C566.733 282.489 565.804 282.077 564.835 282.076ZM566.866 285.979C566.866 286.554 566.652 287.105 566.271 287.512C565.89 287.918 565.373 288.147 564.835 288.147H477.912C476.728 288.146 475.591 287.644 474.754 286.749C473.916 285.855 473.445 284.642 473.444 283.377V240.877C473.445 239.612 473.916 238.4 474.754 237.505C475.591 236.611 476.728 236.108 477.912 236.107H550.212C550.56 236.106 550.906 236.15 551.244 236.237C552.222 236.487 553.092 237.08 553.715 237.922C554.339 238.763 554.679 239.804 554.68 240.877V283.811H564.835C565.328 283.811 565.805 284.003 566.175 284.351C566.546 284.699 566.786 285.179 566.85 285.701C566.857 285.797 566.866 285.883 566.866 285.979ZM557.353 282.076H556.305V281.963C555.769 282.041 555.225 282.119 554.68 282.206V283.811H562.186C560.61 283.203 558.999 282.625 557.353 282.076Z" fill="#3F3D56"/>
<path d="M514.06 267.332C516.752 267.332 518.934 265.002 518.934 262.128C518.934 259.254 516.752 256.924 514.06 256.924C511.368 256.924 509.186 259.254 509.186 262.128C509.186 265.002 511.368 267.332 514.06 267.332Z" fill="#99DDFF"/>
<path d="M562.57 171.298C557.935 175.718 551.722 180.462 546.047 177.224C542.321 175.097 540.662 170.434 541.532 166.02C543.097 158.082 549.524 153.793 555.748 150.326C563.838 145.819 572.766 141.888 581.825 143.06C590.884 144.231 599.735 152.224 599.307 161.956C598.963 169.782 592.977 177.084 594.872 184.653C596.779 192.271 605.44 195.221 612.816 195.609C620.193 195.996 628.314 195.325 634.165 200.135C641.63 206.273 641.511 219.106 636.196 227.412C630.882 235.719 621.908 240.393 613.094 243.946C601.415 248.654 588.579 252.055 576.524 248.594C564.469 245.133 553.916 232.785 555.684 219.591C556.431 214.019 559.177 209.016 561.827 204.149C564.477 199.282 567.143 194.207 567.699 188.609C568.163 183.944 566.775 178.794 563.552 175.789C562.969 175.265 562.556 174.558 562.373 173.768C562.189 172.979 562.245 172.147 562.532 171.394L562.57 171.298Z" fill="#2F2E41"/>
<path d="M0.967263 393H629.161C629.417 393 629.664 392.891 629.845 392.698C630.026 392.504 630.128 392.241 630.128 391.967C630.128 391.693 630.026 391.431 629.845 391.237C629.664 391.043 629.417 390.935 629.161 390.935H0.967263C0.840004 390.934 0.713927 390.961 0.596249 391.012C0.478571 391.064 0.371615 391.14 0.281499 391.236C0.191382 391.332 0.11988 391.446 0.0710952 391.571C0.0223099 391.697 -0.00280762 391.831 -0.00280762 391.967C-0.00280762 392.103 0.0223099 392.238 0.0710952 392.363C0.11988 392.489 0.191382 392.603 0.281499 392.699C0.371615 392.795 0.478571 392.871 0.596249 392.922C0.713927 392.974 0.840004 393 0.967263 393Z" fill="#3F3D56"/>
<path d="M32.8438 306.827V308.562C32.8461 311.436 33.9167 314.193 35.8205 316.225C37.7243 318.258 40.3058 319.401 42.9983 319.404H116.111C118.804 319.402 121.386 318.26 123.29 316.227C125.194 314.194 126.264 311.437 126.265 308.562V306.827C126.27 304.29 125.436 301.833 123.909 299.888C123.401 299.243 122.826 298.661 122.195 298.154C122.195 298.154 81.9995 297.182 81.9995 295.985H42.9983C40.3063 295.989 37.7256 297.133 35.8221 299.165C33.9185 301.198 32.8475 303.953 32.8438 306.827Z" fill="#3F3D56"/>
<path d="M73.8718 391.829H84.4325L84.4325 318.973H73.8718L73.8718 391.829Z" fill="#3F3D56"/>
<path d="M43.8146 391.433C43.8146 392.651 59.8177 391.904 79.5584 391.904C99.2992 391.904 115.302 392.651 115.302 391.433C115.302 390.215 99.2992 380.554 79.5584 380.554C59.8177 380.554 43.8146 390.215 43.8146 391.433Z" fill="#3F3D56"/>
<path d="M132.845 382.511H142.805L147.543 341.496L132.844 341.497L132.845 382.511Z" fill="#A0616A"/>
<path d="M162.013 392.383L130.712 392.385L130.711 379.473L149.919 379.472C153.126 379.472 156.202 380.832 158.47 383.253C160.738 385.675 162.012 388.959 162.013 392.383Z" fill="#2F2E41"/>
<path d="M148.392 376.576L157.895 373.392L150.915 332.745L136.89 337.444L148.392 376.576Z" fill="#A0616A"/>
<path d="M178.99 376.673L149.125 386.679L145.504 374.36L163.83 368.219C166.89 367.194 170.207 367.509 173.05 369.094C175.893 370.679 178.029 373.406 178.99 376.673Z" fill="#2F2E41"/>
<path d="M141.729 357.699L123.51 306.638C119.423 307.663 85.1453 315.761 73.6648 302.71C69.7303 298.237 68.9629 291.757 71.384 283.448L78.084 274.459L78.2922 274.471C80.8255 274.613 140.385 278.177 144.468 297.359C147.91 313.53 154.197 343.679 156.042 352.535C156.229 353.452 156.101 354.411 155.681 355.236C155.262 356.061 154.579 356.698 153.756 357.03L146.429 359.964C146.021 360.128 145.588 360.212 145.152 360.212C144.41 360.212 143.686 359.971 143.075 359.523C142.464 359.074 141.995 358.438 141.729 357.699Z" fill="#2F2E41"/>
<path d="M131.169 363.77L112.95 312.709C108.862 313.734 74.5845 321.831 63.104 308.781C59.1695 304.308 58.4021 297.828 60.8232 289.52L67.5232 280.53L67.7314 280.542C70.2647 280.685 129.824 284.249 133.907 303.43C137.35 319.601 143.637 349.75 145.481 358.606C145.668 359.523 145.54 360.482 145.121 361.307C144.701 362.133 144.018 362.769 143.195 363.102L135.868 366.035C135.46 366.199 135.028 366.283 134.591 366.283C133.85 366.283 133.125 366.043 132.514 365.594C131.903 365.145 131.434 364.509 131.169 363.77Z" fill="#2F2E41"/>
<path d="M114.78 264.705C112.08 264.704 109.427 263.954 107.079 262.529C104.732 261.105 102.771 259.053 101.389 256.577L95.603 246.111L109.356 238.086L115.195 246.634L154.817 242.178C155.01 241.805 155.227 241.448 155.466 241.107C156.227 240.039 157.189 239.154 158.291 238.509C159.393 237.865 160.61 237.475 161.862 237.366C163.12 237.25 164.387 237.424 165.577 237.875C166.767 238.325 167.852 239.042 168.761 239.978C170.218 241.47 171.16 243.444 171.435 245.579C171.709 247.715 171.299 249.887 170.272 251.742C169.63 252.899 168.765 253.897 167.736 254.672C166.707 255.446 165.536 255.98 164.3 256.238C163.065 256.496 161.792 256.473 160.565 256.169C159.338 255.865 158.186 255.288 157.182 254.475C156.95 254.285 156.727 254.083 156.514 253.868L118.565 264.198C117.328 264.535 116.057 264.705 114.78 264.705Z" fill="#A0616A"/>
<path d="M60.5657 292.216C60.0174 291.794 59.5891 291.218 59.3284 290.552C59.0676 289.887 58.9845 289.157 59.0883 288.444C61.3487 272.535 58.748 249.744 56.1681 233.427C55.64 230.116 55.8455 226.719 56.7681 223.508C57.6907 220.297 59.3049 217.362 61.4811 214.937C63.6574 212.512 66.3354 210.665 69.3006 209.544C72.2657 208.423 75.4356 208.059 78.5562 208.481C81.2713 208.863 83.9609 209.43 86.609 210.175C91.0077 211.358 94.8985 214.103 97.6419 217.96C100.385 221.817 101.818 226.556 101.704 231.397C101.319 247.143 104.313 266.789 105.619 274.505C105.708 275.035 105.693 275.579 105.577 276.103C105.46 276.626 105.244 277.119 104.941 277.55C104.644 277.976 104.267 278.331 103.834 278.593C103.401 278.854 102.922 279.016 102.427 279.068C87.96 280.644 72.3594 288.176 64.3476 292.526C63.8327 292.809 63.2621 292.958 62.6827 292.96C61.921 292.958 61.1797 292.697 60.5657 292.216Z" fill="#CCCCCC"/>
<path d="M99.6164 251.181C99.1693 250.993 98.7615 250.713 98.4165 250.356C98.0716 249.999 97.7964 249.573 97.6069 249.101L89.539 229.203C89.0505 228 88.7887 226.707 88.7686 225.397C88.7485 224.086 88.9704 222.785 89.4217 221.566C89.873 220.347 90.5448 219.235 91.3987 218.294C92.2527 217.353 93.2721 216.6 94.3985 216.08C95.525 215.559 96.7365 215.281 97.9638 215.26C99.1911 215.24 100.41 215.478 101.551 215.961C102.692 216.444 103.733 217.162 104.614 218.074C105.495 218.987 106.199 220.076 106.686 221.279L114.754 241.178C115.138 242.128 115.153 243.202 114.796 244.164C114.439 245.126 113.74 245.897 112.851 246.31L102.414 251.133C101.974 251.338 101.5 251.448 101.02 251.456C100.539 251.465 100.062 251.371 99.6164 251.181Z" fill="#CCCCCC"/>
<path d="M77.0714 201.711C88.0908 201.711 97.0238 192.174 97.0238 180.409C97.0238 168.643 88.0908 159.106 77.0714 159.106C66.052 159.106 57.119 168.643 57.119 180.409C57.119 192.174 66.052 201.711 77.0714 201.711Z" fill="#A0616A"/>
<path d="M65.0138 199.335C64.7311 199.683 64.386 199.967 63.9986 200.171C63.6113 200.374 63.1896 200.492 62.7587 200.519C62.3277 200.545 61.8962 200.479 61.4895 200.325C61.0829 200.17 60.7095 199.93 60.3913 199.618C55.9423 195.773 52.4137 190.853 50.0969 185.265C47.503 178.663 47.1228 170.608 50.0749 164.42C52.5705 159.189 57.0504 155.86 61.5227 153.138C63.2372 151.985 65.116 151.137 67.0856 150.628C68.0804 150.387 69.1115 150.371 70.1124 150.581C71.1133 150.791 72.062 151.223 72.8972 151.848C73.7834 152.568 74.4694 153.531 74.8813 154.636C75.2932 155.74 75.4155 156.944 75.2352 158.117C77.2809 155.239 80.0388 153.029 83.198 151.736C85.1364 150.845 87.3021 150.69 89.3344 151.297C92.2065 152.321 94.3324 155.417 95.5155 158.744C96.4722 161.291 96.8226 164.052 96.5354 166.779C96.4101 168.081 96.0381 169.343 95.4419 170.486C94.8457 171.63 94.0378 172.633 93.0673 173.433C90.7246 175.159 87.7063 174.983 84.9818 174.219C82.2572 173.456 79.613 172.16 76.8409 171.799C74.0688 171.438 70.9966 172.221 69.345 174.861C68.1819 176.72 67.9077 179.169 67.6704 181.503L66.436 193.645C66.3488 195.382 65.9983 197.092 65.3981 198.71C65.2965 198.935 65.1673 199.145 65.0138 199.335Z" fill="#2F2E41"/>
<path d="M137.182 330.537H104.791C104.266 330.538 103.748 330.412 103.275 330.168C102.803 329.923 102.389 329.567 102.065 329.126C101.734 328.679 101.503 328.157 101.389 327.6C101.276 327.044 101.283 326.466 101.41 325.913C104.439 312.363 104.439 298.242 101.409 284.693C101.283 284.139 101.276 283.562 101.389 283.005C101.503 282.448 101.734 281.927 102.065 281.48C102.389 281.039 102.803 280.682 103.275 280.438C103.748 280.193 104.266 280.067 104.791 280.069H137.182C138.009 280.071 138.81 280.386 139.44 280.959C140.07 281.532 140.49 282.324 140.624 283.196C142.736 297.848 142.736 312.758 140.624 327.409C140.49 328.281 140.07 329.074 139.44 329.647C138.81 330.219 138.009 330.535 137.182 330.537Z" fill="#CCCCCC"/>
<path d="M112.322 298.87V297.854C112.322 297.164 112.579 296.502 113.036 296.015C113.493 295.527 114.112 295.252 114.759 295.252H131.756C132.402 295.252 133.022 295.527 133.479 296.015C133.935 296.502 134.192 297.164 134.193 297.854V298.87C134.192 299.56 133.935 300.221 133.479 300.709C133.022 301.197 132.402 301.471 131.756 301.472H114.759C114.112 301.471 113.493 301.197 113.036 300.709C112.579 300.221 112.322 299.56 112.322 298.87Z" fill="white"/>
<path d="M112.322 309.577V308.56C112.322 307.87 112.579 307.209 113.036 306.721C113.493 306.233 114.112 305.959 114.759 305.958H131.756C132.402 305.959 133.022 306.233 133.479 306.721C133.935 307.209 134.192 307.87 134.193 308.56V309.577C134.192 310.267 133.935 310.928 133.479 311.416C133.022 311.904 132.402 312.178 131.756 312.179H114.759C114.112 312.178 113.493 311.904 113.036 311.416C112.579 310.928 112.322 310.267 112.322 309.577Z" fill="white"/>
<path d="M122.77 267.869C122.434 267.414 122.199 266.884 122.083 266.318C121.968 265.752 121.975 265.165 122.104 264.602C125.184 250.83 125.184 236.477 122.104 222.705C121.975 222.142 121.968 221.556 122.083 220.99C122.199 220.424 122.434 219.893 122.77 219.439C123.1 218.991 123.52 218.629 124.001 218.38C124.481 218.132 125.007 218.004 125.541 218.006H158.464C159.305 218.007 160.118 218.328 160.759 218.91C161.4 219.492 161.826 220.298 161.962 221.184C164.11 236.076 164.11 251.231 161.962 266.123C161.826 267.01 161.4 267.816 160.759 268.398C160.118 268.98 159.305 269.3 158.464 269.302H125.541C125.007 269.304 124.481 269.176 124.001 268.927C123.52 268.679 123.1 268.317 122.77 267.869Z" fill="#99DDFF"/>
<path d="M152.111 236.932H134.767C134.121 236.931 133.502 236.657 133.045 236.169C132.588 235.681 132.331 235.02 132.33 234.33V233.225C132.331 232.535 132.588 231.874 133.045 231.386C133.502 230.898 134.121 230.624 134.767 230.623H152.111C152.757 230.624 153.376 230.898 153.833 231.386C154.29 231.874 154.547 232.535 154.548 233.225V234.33C154.547 235.02 154.29 235.682 153.833 236.169C153.376 236.657 152.757 236.931 152.111 236.932Z" fill="white"/>
<path d="M152.111 247.815H134.767C134.121 247.814 133.502 247.54 133.045 247.052C132.588 246.564 132.331 245.903 132.33 245.213V244.108C132.331 243.418 132.588 242.757 133.045 242.269C133.502 241.781 134.121 241.507 134.767 241.506H152.111C152.757 241.507 153.376 241.781 153.833 242.269C154.29 242.757 154.547 243.418 154.548 244.108V245.213C154.547 245.903 154.29 246.564 153.833 247.052C153.376 247.54 152.757 247.814 152.111 247.815Z" fill="white"/>
<path d="M107.665 286.949C106.478 286.506 105.393 285.802 104.478 284.881C103.564 283.961 102.841 282.846 102.357 281.608C102.245 281.319 102.148 281.024 102.065 280.724L59.5607 267.807C57.7342 267.244 56.1264 266.067 54.976 264.451C53.8256 262.835 53.1939 260.866 53.1746 258.836L53.0709 241.314L68.738 241.762L69.759 252.286L106.105 269.709C106.447 269.49 106.803 269.298 107.17 269.132C108.509 268.533 109.964 268.29 111.411 268.426C112.857 268.561 114.25 269.071 115.471 269.91C116.691 270.749 117.702 271.893 118.416 273.242C119.13 274.592 119.526 276.107 119.569 277.656C119.612 279.205 119.301 280.742 118.663 282.135C118.025 283.527 117.079 284.733 115.908 285.647C114.736 286.562 113.373 287.159 111.937 287.385C110.501 287.612 109.034 287.462 107.665 286.949Z" fill="#A0616A"/>
<path d="M53.3146 249.007C52.9955 248.623 52.7508 248.176 52.5946 247.691C52.4385 247.206 52.374 246.693 52.4049 246.181L53.651 224.539C53.7244 223.23 54.0387 221.949 54.5761 220.77C55.1135 219.591 55.8633 218.537 56.7827 217.667C57.7021 216.798 58.7731 216.131 59.9343 215.704C61.0955 215.277 62.3241 215.099 63.55 215.179C64.7758 215.26 65.9747 215.597 67.0781 216.173C68.1815 216.749 69.1677 217.551 69.9804 218.534C70.7931 219.517 71.4162 220.662 71.8142 221.903C72.2121 223.143 72.3771 224.455 72.2996 225.764L71.0537 247.406C70.9929 248.439 70.5511 249.404 69.825 250.089C69.099 250.774 68.1481 251.124 67.1807 251.062L55.8291 250.317C55.3497 250.287 54.8805 250.156 54.4489 249.931C54.0172 249.706 53.6317 249.392 53.3146 249.007Z" fill="#CCCCCC"/>
<path d="M236.009 132.758H169.395C167.457 132.755 165.598 131.932 164.228 130.469C162.857 129.005 162.086 127.021 162.084 124.952V47.7588C162.086 45.6892 162.857 43.7051 164.228 42.2417C165.598 40.7783 167.457 39.9551 169.395 39.9528H236.009C237.947 39.9551 239.805 40.7783 241.176 42.2417C242.547 43.7051 243.318 45.6892 243.32 47.7588V124.952C243.318 127.021 242.547 129.005 241.176 130.469C239.805 131.932 237.947 132.755 236.009 132.758ZM169.395 41.6874C167.887 41.6892 166.442 42.3295 165.376 43.4677C164.31 44.6059 163.71 46.1491 163.709 47.7588V124.952C163.71 126.561 164.31 128.105 165.376 129.243C166.442 130.381 167.887 131.021 169.395 131.023H236.009C237.516 131.021 238.962 130.381 240.028 129.243C241.094 128.105 241.694 126.561 241.695 124.952V47.7588C241.694 46.1491 241.094 44.6059 240.028 43.4677C238.962 42.3295 237.516 41.6892 236.009 41.6874H169.395Z" fill="#3F3D56"/>
<path d="M357.863 132.758H291.249C289.311 132.755 287.452 131.932 286.082 130.469C284.711 129.005 283.94 127.021 283.938 124.952V47.7588C283.94 45.6892 284.711 43.7051 286.082 42.2417C287.452 40.7783 289.311 39.9551 291.249 39.9528H357.863C359.801 39.9551 361.66 40.7783 363.03 42.2417C364.401 43.7051 365.172 45.6892 365.174 47.7588V124.952C365.172 127.021 364.401 129.005 363.03 130.469C361.66 131.932 359.801 132.755 357.863 132.758ZM291.249 41.6874C289.742 41.6892 288.296 42.3295 287.23 43.4677C286.164 44.6059 285.564 46.1491 285.563 47.7588V124.952C285.564 126.561 286.164 128.105 287.23 129.243C288.296 130.381 289.742 131.021 291.249 131.023H357.863C359.37 131.021 360.816 130.381 361.882 129.243C362.948 128.105 363.548 126.561 363.549 124.952V47.7588C363.548 46.1491 362.948 44.6059 361.882 43.4677C360.816 42.3295 359.37 41.6892 357.863 41.6874H291.249Z" fill="#3F3D56"/>
<path d="M182.811 72.0443H176.312C175.343 72.0431 174.414 71.6315 173.729 70.8998C173.043 70.1681 172.658 69.176 172.657 68.1413V61.2026C172.658 60.1678 173.043 59.1757 173.729 58.444C174.414 57.7123 175.343 57.3007 176.312 57.2996H182.811C183.78 57.3007 184.71 57.7123 185.395 58.444C186.08 59.1757 186.466 60.1678 186.467 61.2026V68.1413C186.466 69.176 186.08 70.1681 185.395 70.8998C184.71 71.6315 183.78 72.0431 182.811 72.0443Z" fill="#99DDFF"/>
<path d="M182.811 93.7276H176.312C175.343 93.7265 174.414 93.3149 173.729 92.5832C173.043 91.8515 172.658 90.8594 172.657 89.8246V82.8859C172.658 81.8511 173.043 80.8591 173.729 80.1273C174.414 79.3956 175.343 78.9841 176.312 78.9829H182.811C183.78 78.9841 184.71 79.3956 185.395 80.1273C186.08 80.8591 186.466 81.8511 186.467 82.8859V89.8246C186.466 90.8594 186.08 91.8515 185.395 92.5832C184.71 93.3149 183.78 93.7265 182.811 93.7276Z" fill="#CCCCCC"/>
<path d="M230.31 67.8263H199.969C199.323 67.8255 198.703 67.5511 198.246 67.0633C197.789 66.5755 197.532 65.9141 197.532 65.2243V64.1193C197.532 63.4295 197.789 62.7681 198.246 62.2803C198.703 61.7925 199.323 61.5181 199.969 61.5173H230.31C230.956 61.5181 231.576 61.7925 232.032 62.2803C232.489 62.7681 232.746 63.4295 232.747 64.1193V65.2243C232.746 65.9141 232.489 66.5755 232.032 67.0633C231.576 67.5511 230.956 67.8255 230.31 67.8263Z" fill="#99DDFF"/>
<path d="M305.226 70.6838H298.727C297.758 70.6826 296.828 70.2711 296.143 69.5393C295.458 68.8076 295.072 67.8156 295.071 66.7808V59.8421C295.072 58.8073 295.458 57.8152 296.143 57.0835C296.828 56.3518 297.758 55.9402 298.727 55.9391H305.226C306.195 55.9402 307.124 56.3518 307.809 57.0835C308.495 57.8152 308.88 58.8073 308.881 59.8421V66.7808C308.88 67.8156 308.495 68.8076 307.809 69.5393C307.124 70.2711 306.195 70.6826 305.226 70.6838Z" fill="#CCCCCC"/>
<path d="M352.724 66.4659H322.383C321.737 66.4652 321.118 66.1908 320.661 65.703C320.204 65.2152 319.947 64.5538 319.946 63.8639V62.759C319.947 62.0691 320.204 61.4077 320.661 60.9199C321.118 60.4321 321.737 60.1577 322.383 60.157H352.724C353.371 60.1577 353.99 60.4321 354.447 60.9199C354.904 61.4077 355.161 62.0691 355.161 62.759V63.8639C355.161 64.5538 354.904 65.2152 354.447 65.703C353.99 66.1908 353.371 66.4652 352.724 66.4659Z" fill="#CCCCCC"/>
<path d="M352.724 87.282H296.388C295.742 87.2812 295.122 87.0068 294.665 86.519C294.208 86.0312 293.951 85.3698 293.951 84.6799V83.575C293.951 82.8852 294.208 82.2238 294.665 81.736C295.122 81.2482 295.742 80.9738 296.388 80.973H352.724C353.371 80.9738 353.99 81.2482 354.447 81.736C354.904 82.2238 355.161 82.8852 355.162 83.575V84.6799C355.161 85.3698 354.904 86.0312 354.447 86.519C353.99 87.0068 353.371 87.2812 352.724 87.282Z" fill="#99DDFF"/>
<path d="M352.724 102.027H296.388C295.742 102.026 295.122 101.752 294.665 101.264C294.208 100.776 293.951 100.115 293.951 99.4247V98.3198C293.951 97.6299 294.208 96.9685 294.665 96.4807C295.122 95.9929 295.742 95.7185 296.388 95.7178H352.724C353.371 95.7185 353.99 95.9929 354.447 96.4807C354.904 96.9685 355.161 97.6299 355.162 98.3198V99.4247C355.161 100.115 354.904 100.776 354.447 101.264C353.99 101.752 353.371 102.026 352.724 102.027Z" fill="#CCCCCC"/>
<path d="M352.724 116.771H296.388C295.742 116.771 295.122 116.496 294.665 116.008C294.208 115.521 293.951 114.859 293.951 114.169V113.064C293.951 112.375 294.208 111.713 294.665 111.225C295.122 110.738 295.742 110.463 296.388 110.462H352.724C353.371 110.463 353.99 110.738 354.447 111.225C354.904 111.713 355.161 112.375 355.162 113.064V114.169C355.161 114.859 354.904 115.521 354.447 116.008C353.99 116.496 353.371 116.771 352.724 116.771Z" fill="#CCCCCC"/>
<path d="M479.717 132.758H413.103C411.165 132.755 409.307 131.932 407.936 130.469C406.565 129.005 405.794 127.021 405.792 124.952V47.7588C405.794 45.6892 406.565 43.7051 407.936 42.2417C409.307 40.7783 411.165 39.9551 413.103 39.9528H479.717C481.655 39.9551 483.514 40.7783 484.884 42.2417C486.255 43.7051 487.026 45.6892 487.028 47.7588V124.952C487.026 127.021 486.255 129.005 484.884 130.469C483.514 131.932 481.655 132.755 479.717 132.758ZM413.103 41.6874C411.596 41.6892 410.15 42.3295 409.084 43.4677C408.018 44.6059 407.419 46.1491 407.417 47.7588V124.952C407.419 126.561 408.018 128.105 409.084 129.243C410.15 130.381 411.596 131.021 413.103 131.023H479.717C481.225 131.021 482.67 130.381 483.736 129.243C484.802 128.105 485.402 126.561 485.403 124.952V47.7588C485.402 46.1491 484.802 44.6059 483.736 43.4677C482.67 42.3295 481.225 41.6892 479.717 41.6874H413.103Z" fill="#3F3D56"/>
<path d="M474.579 66.4659H444.237C443.591 66.4652 442.972 66.1908 442.515 65.703C442.058 65.2152 441.801 64.5538 441.8 63.8639V62.759C441.801 62.0691 442.058 61.4077 442.515 60.9199C442.972 60.4321 443.591 60.1577 444.237 60.157H474.579C475.225 60.1577 475.844 60.4321 476.301 60.9199C476.758 61.4077 477.015 62.0691 477.016 62.759V63.8639C477.015 64.5538 476.758 65.2152 476.301 65.703C475.844 66.1908 475.225 66.4652 474.579 66.4659Z" fill="#CCCCCC"/>
<path d="M474.578 87.282H418.242C417.596 87.2812 416.976 87.0068 416.519 86.519C416.062 86.0312 415.805 85.3698 415.805 84.6799V83.575C415.805 82.8852 416.062 82.2238 416.519 81.736C416.976 81.2482 417.596 80.9738 418.242 80.973H474.578C475.225 80.9738 475.844 81.2482 476.301 81.736C476.758 82.2238 477.015 82.8852 477.016 83.575V84.6799C477.015 85.3698 476.758 86.0312 476.301 86.519C475.844 87.0068 475.225 87.2812 474.578 87.282Z" fill="#CCCCCC"/>
<path d="M474.578 102.027H418.242C417.596 102.026 416.976 101.752 416.519 101.264C416.062 100.776 415.805 100.115 415.805 99.4247V98.3198C415.805 97.6299 416.062 96.9685 416.519 96.4807C416.976 95.9929 417.596 95.7185 418.242 95.7178H474.578C475.225 95.7185 475.844 95.9929 476.301 96.4807C476.758 96.9685 477.015 97.6299 477.016 98.3198V99.4247C477.015 100.115 476.758 100.776 476.301 101.264C475.844 101.752 475.225 102.026 474.578 102.027Z" fill="#CCCCCC"/>
<path d="M474.578 116.771H418.242C417.596 116.771 416.976 116.496 416.519 116.008C416.062 115.521 415.805 114.859 415.805 114.169V113.064C415.805 112.375 416.062 111.713 416.519 111.225C416.976 110.738 417.596 110.463 418.242 110.462H474.578C475.225 110.463 475.844 110.738 476.301 111.225C476.758 111.713 477.015 112.375 477.016 113.064V114.169C477.015 114.859 476.758 115.521 476.301 116.008C475.844 116.496 475.225 116.771 474.578 116.771Z" fill="#CCCCCC"/>
<path d="M230.31 89.5097H199.969C199.323 89.509 198.703 89.2346 198.246 88.7468C197.789 88.259 197.532 87.5976 197.532 86.9077V85.8028C197.532 85.1129 197.789 84.4516 198.246 83.9637C198.703 83.4759 199.323 83.2016 199.969 83.2008H230.31C230.956 83.2016 231.576 83.4759 232.032 83.9637C232.489 84.4516 232.746 85.1129 232.747 85.8028V86.9077C232.746 87.5976 232.489 88.259 232.032 88.7468C231.576 89.2346 230.956 89.509 230.31 89.5097Z" fill="#CCCCCC"/>
<path d="M182.811 115.411H176.312C175.343 115.41 174.414 114.998 173.729 114.267C173.043 113.535 172.658 112.543 172.657 111.508V104.569C172.658 103.534 173.043 102.542 173.729 101.811C174.414 101.079 175.343 100.667 176.312 100.666H182.811C183.78 100.667 184.71 101.079 185.395 101.811C186.08 102.542 186.466 103.534 186.467 104.569V111.508C186.466 112.543 186.08 113.535 185.395 114.267C184.71 114.998 183.78 115.41 182.811 115.411Z" fill="#CCCCCC"/>
<path d="M230.31 111.193H199.969C199.323 111.192 198.703 110.918 198.246 110.43C197.789 109.942 197.532 109.281 197.532 108.591V107.486C197.532 106.796 197.789 106.135 198.246 105.647C198.703 105.159 199.323 104.885 199.969 104.884H230.31C230.956 104.885 231.576 105.159 232.032 105.647C232.489 106.135 232.746 106.796 232.747 107.486V108.591C232.746 109.281 232.489 109.942 232.032 110.43C231.576 110.918 230.956 111.192 230.31 111.193Z" fill="#CCCCCC"/>
<path d="M430.973 62.5035C430.973 62.4835 430.975 62.4641 430.975 62.4441C430.975 61.419 430.786 60.4039 430.419 59.4568C430.051 58.5098 429.513 57.6492 428.834 56.9244C428.155 56.1995 427.349 55.6245 426.462 55.2322C425.575 54.84 424.624 54.638 423.664 54.6381V62.5035H430.973Z" fill="#99DDFF"/>
<path d="M422.852 63.3709V55.5055C421.408 55.505 419.996 55.9608 418.795 56.8156C417.593 57.6704 416.656 58.8858 416.1 60.3087C415.545 61.7315 415.397 63.2981 415.674 64.8109C415.951 66.3236 416.642 67.7149 417.659 68.8092C418.676 69.9035 419.973 70.6519 421.388 70.96C422.802 71.2681 424.271 71.1222 425.608 70.5405C426.945 69.9589 428.091 68.9676 428.901 67.6917C429.711 66.4158 430.149 64.9123 430.16 63.3709H422.852Z" fill="#CCCCCC"/>
</g>
<defs>
<clipPath id="clip0_24_107">
<rect width="640" height="393" fill="white"/>
</clipPath>
</defs>
</svg>
