<svg width="568" height="522" viewBox="0 0 568 522" fill="none" xmlns="http://www.w3.org/2000/svg">
<g clip-path="url(#clip0_61_110)">
<path d="M39.6681 464.677C30.3559 471.096 20.8333 477.72 14.3852 487.016C7.93742 496.313 5.12272 509.003 10.3037 519.062L10.1701 519.689C14.0968 521.071 18.3129 521.417 22.412 520.694C26.5112 519.972 30.3554 518.204 33.5741 515.563C41.7711 508.676 44.3414 497.331 46.4324 486.825L52.6178 455.752L39.6681 464.677Z" fill="#F0F0F0"/>
<path d="M48.6371 496.012C42.4252 497.388 36.0603 498.826 30.7337 502.309C25.4074 505.792 21.2583 511.813 21.8346 518.156L21.6324 518.454C23.3881 520.006 25.5135 521.079 27.8037 521.57C30.0939 522.06 32.4717 521.953 34.7082 521.257C40.4375 519.401 44.1749 514.029 47.4849 508.993L57.2754 494.1L48.6371 496.012Z" fill="#F0F0F0"/>
<path d="M567.23 27.7388H36.8314C36.6277 27.7381 36.4325 27.6566 36.2888 27.5122C36.145 27.3678 36.0642 27.1722 36.0642 26.9683C36.0642 26.7644 36.145 26.5688 36.2888 26.4244C36.4325 26.2799 36.6277 26.1985 36.8314 26.1978H567.23C567.434 26.1985 567.629 26.2799 567.773 26.4244C567.917 26.5688 567.997 26.7644 567.997 26.9683C567.997 27.1722 567.917 27.3678 567.773 27.5122C567.629 27.6566 567.434 27.7381 567.23 27.7388Z" fill="#CACACA"/>
<path d="M54.1581 16.9516C58.8348 16.9516 62.626 13.1568 62.626 8.47578C62.626 3.79474 58.8348 0 54.1581 0C49.4814 0 45.6902 3.79474 45.6902 8.47578C45.6902 13.1568 49.4814 16.9516 54.1581 16.9516Z" fill="#3F3D56"/>
<path d="M83.4109 16.9516C88.0876 16.9516 91.8788 13.1568 91.8788 8.47578C91.8788 3.79474 88.0876 0 83.4109 0C78.7342 0 74.943 3.79474 74.943 8.47578C74.943 13.1568 78.7342 16.9516 83.4109 16.9516Z" fill="#3F3D56"/>
<path d="M112.664 16.9516C117.34 16.9516 121.132 13.1568 121.132 8.47578C121.132 3.79474 117.34 0 112.664 0C107.987 0 104.196 3.79474 104.196 8.47578C104.196 13.1568 107.987 16.9516 112.664 16.9516Z" fill="#3F3D56"/>
<path d="M549.703 5.18439H528.919C528.51 5.18439 528.119 5.02202 527.83 4.73302C527.541 4.44402 527.379 4.05205 527.379 3.64334C527.379 3.23463 527.541 2.84265 527.83 2.55365C528.119 2.26465 528.51 2.10229 528.919 2.10229H549.703C550.112 2.10229 550.503 2.26465 550.792 2.55365C551.081 2.84265 551.243 3.23463 551.243 3.64334C551.243 4.05205 551.081 4.44402 550.792 4.73302C550.503 5.02202 550.112 5.18439 549.703 5.18439Z" fill="#3F3D56"/>
<path d="M549.703 10.9632H528.919C528.51 10.9632 528.119 10.8008 527.83 10.5118C527.541 10.2228 527.379 9.83086 527.379 9.42215C527.379 9.01344 527.541 8.62148 527.83 8.33247C528.119 8.04347 528.51 7.8811 528.919 7.8811H549.703C550.112 7.8811 550.503 8.04347 550.792 8.33247C551.081 8.62148 551.243 9.01344 551.243 9.42215C551.243 9.83086 551.081 10.2228 550.792 10.5118C550.503 10.8008 550.112 10.9632 549.703 10.9632Z" fill="#3F3D56"/>
<path d="M549.703 16.7422H528.919C528.51 16.7422 528.119 16.5799 527.83 16.2909C527.541 16.0019 527.379 15.6099 527.379 15.2012C527.379 14.7925 527.541 14.4005 527.83 14.1115C528.119 13.8225 528.51 13.6602 528.919 13.6602H549.703C550.111 13.6616 550.501 13.8245 550.789 14.1134C551.076 14.4022 551.238 14.7934 551.238 15.2012C551.238 15.609 551.076 16.0002 550.789 16.289C550.501 16.5779 550.111 16.7408 549.703 16.7422Z" fill="#3F3D56"/>
<path d="M397.281 60.7805H45.478V271.905H397.281V60.7805Z" fill="#F0F0F0"/>
<path d="M551.243 60.7805H440.39V127.305H551.243V60.7805Z" fill="#F0F0F0"/>
<path d="M529.127 157.867H463.17C462.346 157.867 461.556 157.539 460.974 156.956C460.391 156.373 460.064 155.582 460.064 154.757C460.064 153.933 460.391 153.142 460.974 152.558C461.556 151.975 462.346 151.648 463.17 151.648H529.127C529.951 151.648 530.741 151.975 531.324 152.558C531.907 153.142 532.234 153.933 532.234 154.757C532.234 155.582 531.907 156.373 531.324 156.956C530.741 157.539 529.951 157.867 529.127 157.867Z" fill="#E4E4E4"/>
<path d="M518.493 147.223H473.805C472.981 147.223 472.19 146.895 471.608 146.312C471.025 145.729 470.698 144.938 470.698 144.113C470.698 143.288 471.025 142.497 471.608 141.914C472.19 141.331 472.981 141.003 473.805 141.003H518.493C519.317 141.003 520.107 141.331 520.69 141.914C521.272 142.497 521.6 143.288 521.6 144.113C521.6 144.938 521.272 145.729 520.69 146.312C520.107 146.895 519.317 147.223 518.493 147.223Z" fill="#E4E4E4"/>
<path d="M551.243 181.753H440.39V248.278H551.243V181.753Z" fill="#F0F0F0"/>
<path d="M529.127 278.839H463.17C462.346 278.839 461.556 278.512 460.974 277.928C460.391 277.345 460.064 276.554 460.064 275.73C460.064 274.905 460.391 274.114 460.974 273.531C461.556 272.948 462.346 272.62 463.17 272.62H529.127C529.951 272.62 530.741 272.948 531.324 273.531C531.907 274.114 532.234 274.905 532.234 275.73C532.234 276.554 531.907 277.345 531.324 277.928C530.741 278.512 529.951 278.839 529.127 278.839Z" fill="#E4E4E4"/>
<path d="M518.493 268.195H473.805C472.981 268.195 472.19 267.867 471.608 267.284C471.025 266.701 470.698 265.91 470.698 265.085C470.698 264.261 471.025 263.47 471.608 262.887C472.19 262.303 472.981 261.976 473.805 261.976H518.493C519.316 261.977 520.105 262.305 520.686 262.888C521.268 263.472 521.594 264.262 521.594 265.085C521.594 265.909 521.268 266.699 520.686 267.282C520.105 267.865 519.316 268.194 518.493 268.195Z" fill="#E4E4E4"/>
<path d="M227.493 174.357C241.992 174.357 253.745 162.592 253.745 148.08C253.745 133.568 241.992 121.803 227.493 121.803C212.994 121.803 201.24 133.568 201.24 148.08C201.24 162.592 212.994 174.357 227.493 174.357Z" fill="#9E616A"/>
<path d="M271.725 271.904H205.899L209.593 188.588L210.048 188.11L216.584 181.206H237.369L245.082 188.68L245.69 189.273L262.103 205.015L271.725 271.904Z" fill="#99DDFF"/>
<path d="M224.12 271.905H174.09C173.759 240.02 173.497 215.965 173.497 215.965L176.053 214.408L176.069 214.4L204.128 197.349L210.017 187.771L210.048 188.11L211.78 208.298C211.78 208.298 221.195 238.741 224.12 271.905Z" fill="#2F2E41"/>
<path d="M292.195 271.905H247.676C245.297 261.102 244.058 250.815 244.597 242.239C246.783 207.204 241.741 187.771 243.927 187.771L245.082 188.68L258.815 199.537L276.898 206.171L289.446 210.779L291.632 211.58V212.636C291.64 217.937 291.694 242.555 292.195 271.905Z" fill="#2F2E41"/>
<path d="M202.656 156.301C202.656 156.301 204.887 152.38 204.368 139.283C203.85 126.185 223.776 133.593 240.427 132.343C257.078 131.094 253.553 154.21 253.553 154.21C253.553 154.21 254.754 152.836 257.326 141.679C259.898 130.523 254.058 119.404 254.058 119.404C252.339 107.681 243.07 111.438 243.07 111.438C247.534 113.177 246.676 116.896 246.676 116.896C242.898 110.266 233.629 114.023 233.629 114.023C221.268 106.259 208.739 116.484 208.739 116.484C193.806 119.876 202.564 131.763 202.564 131.763C187.546 139.359 202.656 156.301 202.656 156.301Z" fill="#2F2E41"/>
<path d="M159.595 271.904C160.872 246.331 161.85 226.266 161.465 224.718C160.388 220.41 175.591 214.577 176.053 214.408L176.061 214.4H176.069L178.971 215.964L181.095 271.904H159.595Z" fill="#2F2E41"/>
<path d="M302.664 271.905H280.07L273.603 207.974L276.267 206.025C276.267 206.025 276.498 206.079 276.898 206.171C278.969 206.687 285.651 208.436 289.446 210.779C290.286 211.253 291.028 211.884 291.632 212.636C292.002 213.079 292.187 213.647 292.148 214.223C291.956 216.034 296.883 241.631 302.664 271.905Z" fill="#2F2E41"/>
<path d="M340.7 297.717H102.059C101.141 297.719 100.262 298.085 99.6132 298.735C98.9648 299.385 98.6006 300.266 98.6006 301.185C98.6006 302.103 98.9648 302.984 99.6132 303.634C100.262 304.285 101.141 304.651 102.059 304.652H340.7C341.155 304.653 341.607 304.564 342.027 304.39C342.448 304.216 342.831 303.961 343.153 303.638C343.476 303.316 343.731 302.934 343.906 302.513C344.08 302.092 344.17 301.64 344.17 301.185C344.17 300.729 344.08 300.277 343.906 299.856C343.731 299.435 343.476 299.053 343.153 298.731C342.831 298.409 342.448 298.154 342.027 297.98C341.607 297.806 341.155 297.717 340.7 297.717Z" fill="#CACACA"/>
<path d="M276.036 297.717V304.652H102.059C101.141 304.651 100.262 304.285 99.6132 303.634C98.9648 302.984 98.6006 302.103 98.6006 301.185C98.6006 300.266 98.9648 299.385 99.6132 298.735C100.262 298.085 101.141 297.719 102.059 297.717H276.036Z" fill="#3F3D56"/>
<path d="M276.036 308.119C279.862 308.119 282.964 305.014 282.964 301.184C282.964 297.355 279.862 294.25 276.036 294.25C272.21 294.25 269.108 297.355 269.108 301.184C269.108 305.014 272.21 308.119 276.036 308.119Z" fill="#3F3D56"/>
<path d="M221.379 358.974C218.551 358.974 215.786 358.135 213.434 356.562C211.082 354.989 209.249 352.753 208.166 350.137C207.084 347.521 206.801 344.643 207.353 341.866C207.904 339.09 209.267 336.539 211.267 334.537C213.267 332.535 215.815 331.171 218.589 330.619C221.364 330.067 224.239 330.35 226.853 331.434C229.466 332.517 231.699 334.352 233.271 336.706C234.842 339.06 235.681 341.828 235.681 344.659C235.677 348.454 234.169 352.093 231.488 354.777C228.806 357.46 225.171 358.97 221.379 358.974ZM221.379 331.445C218.768 331.445 216.216 332.22 214.045 333.672C211.874 335.124 210.182 337.188 209.183 339.602C208.184 342.017 207.922 344.674 208.432 347.237C208.941 349.8 210.198 352.155 212.045 354.003C213.891 355.851 216.243 357.109 218.804 357.619C221.365 358.129 224.019 357.867 226.432 356.867C228.844 355.867 230.906 354.173 232.356 352C233.807 349.827 234.581 347.273 234.581 344.659C234.577 341.156 233.185 337.797 230.71 335.32C228.235 332.843 224.88 331.449 221.379 331.445Z" fill="#99DDFF"/>
<path d="M219.491 352.367C219.345 352.367 219.205 352.309 219.102 352.206C218.999 352.103 218.941 351.962 218.941 351.816V337.501C218.94 337.429 218.954 337.356 218.981 337.289C219.008 337.222 219.049 337.16 219.1 337.109C219.151 337.057 219.212 337.016 219.279 336.988C219.346 336.96 219.418 336.945 219.491 336.945C219.563 336.945 219.635 336.96 219.703 336.988C219.77 337.016 219.831 337.057 219.882 337.109C219.933 337.16 219.973 337.222 220.001 337.289C220.028 337.356 220.042 337.429 220.041 337.501V351.816C220.041 351.962 219.983 352.103 219.88 352.206C219.777 352.309 219.637 352.367 219.491 352.367Z" fill="#99DDFF"/>
<path d="M223.268 352.367C223.122 352.367 222.983 352.309 222.879 352.206C222.776 352.103 222.718 351.962 222.718 351.816V337.501C222.718 337.429 222.731 337.357 222.759 337.289C222.786 337.222 222.826 337.161 222.878 337.109C222.929 337.057 222.99 337.016 223.057 336.988C223.124 336.96 223.196 336.946 223.268 336.946C223.341 336.946 223.413 336.96 223.48 336.988C223.547 337.016 223.608 337.057 223.659 337.109C223.71 337.161 223.751 337.222 223.778 337.289C223.805 337.357 223.819 337.429 223.818 337.501V351.817C223.818 351.963 223.76 352.103 223.657 352.206C223.554 352.309 223.414 352.367 223.268 352.367Z" fill="#99DDFF"/>
<path d="M155.874 344.659C155.874 341.828 156.713 339.06 158.284 336.706C159.856 334.352 162.09 332.517 164.703 331.434C167.316 330.35 170.192 330.067 172.966 330.619C175.74 331.171 178.289 332.535 180.289 334.537C182.289 336.539 183.651 339.09 184.203 341.866C184.755 344.643 184.471 347.521 183.389 350.137C182.306 352.753 180.473 354.989 178.122 356.562C175.77 358.135 173.004 358.974 170.176 358.974C166.384 358.97 162.749 357.46 160.068 354.777C157.387 352.093 155.878 348.454 155.874 344.659ZM156.974 344.659C156.974 347.273 157.749 349.827 159.199 352C160.65 354.173 162.712 355.867 165.124 356.867C167.536 357.867 170.191 358.129 172.751 357.619C175.312 357.109 177.665 355.851 179.511 354.003C181.357 352.155 182.615 349.8 183.124 347.237C183.633 344.674 183.372 342.017 182.373 339.602C181.373 337.188 179.681 335.124 177.51 333.672C175.339 332.22 172.787 331.445 170.176 331.445C166.676 331.449 163.32 332.843 160.845 335.32C158.37 337.797 156.978 341.156 156.974 344.659Z" fill="#3F3D56"/>
<path d="M176.353 349.479C176.454 349.479 176.552 349.446 176.632 349.384C176.712 349.323 176.769 349.237 176.795 349.14C176.822 349.042 176.815 348.939 176.776 348.846C176.738 348.752 176.67 348.675 176.582 348.624L169.721 344.659L176.582 340.694C176.687 340.633 176.764 340.533 176.796 340.416C176.827 340.299 176.811 340.174 176.75 340.068C176.689 339.963 176.589 339.886 176.472 339.855C176.355 339.824 176.23 339.84 176.125 339.901L168.577 344.262C168.508 344.303 168.45 344.361 168.41 344.43C168.37 344.5 168.349 344.579 168.349 344.659C168.349 344.739 168.37 344.818 168.41 344.888C168.45 344.958 168.508 345.015 168.577 345.056L176.125 349.417C176.194 349.458 176.273 349.479 176.353 349.479Z" fill="#3F3D56"/>
<path d="M166.233 351.069C166.354 351.069 166.471 351.021 166.556 350.935C166.642 350.849 166.69 350.733 166.69 350.611V338.707C166.69 338.585 166.642 338.469 166.556 338.383C166.471 338.297 166.354 338.249 166.233 338.249C166.112 338.249 165.995 338.297 165.909 338.383C165.824 338.469 165.775 338.585 165.775 338.707V350.611C165.775 350.733 165.824 350.849 165.909 350.935C165.995 351.021 166.112 351.069 166.233 351.069Z" fill="#3F3D56"/>
<path d="M272.583 358.974C269.755 358.974 266.989 358.135 264.638 356.562C262.286 354.989 260.453 352.753 259.37 350.137C258.288 347.521 258.004 344.643 258.556 341.866C259.108 339.09 260.47 336.539 262.47 334.537C264.47 332.535 267.019 331.171 269.793 330.619C272.567 330.067 275.443 330.35 278.056 331.434C280.67 332.517 282.903 334.352 284.475 336.706C286.046 339.06 286.885 341.828 286.885 344.659C286.881 348.454 285.372 352.093 282.691 354.777C280.01 357.46 276.375 358.97 272.583 358.974ZM272.583 331.445C269.972 331.445 267.42 332.22 265.249 333.672C263.078 335.124 261.386 337.188 260.387 339.602C259.387 342.017 259.126 344.674 259.635 347.237C260.145 349.8 261.402 352.155 263.248 354.003C265.095 355.851 267.447 357.109 270.008 357.619C272.569 358.129 275.223 357.867 277.635 356.867C280.048 355.867 282.109 354.173 283.56 352C285.011 349.827 285.785 347.273 285.785 344.659C285.781 341.156 284.389 337.797 281.914 335.32C279.439 332.843 276.083 331.449 272.583 331.445Z" fill="#3F3D56"/>
<path d="M266.406 349.479C266.305 349.479 266.207 349.446 266.127 349.384C266.047 349.323 265.99 349.237 265.964 349.139C265.938 349.042 265.944 348.939 265.983 348.846C266.021 348.752 266.09 348.675 266.177 348.624L273.038 344.659L266.177 340.694C266.072 340.633 265.996 340.533 265.965 340.416C265.934 340.299 265.95 340.174 266.011 340.069C266.071 339.964 266.171 339.887 266.288 339.856C266.405 339.824 266.529 339.84 266.634 339.901L274.182 344.262C274.251 344.303 274.309 344.36 274.349 344.43C274.39 344.5 274.411 344.579 274.411 344.659C274.411 344.739 274.39 344.818 274.349 344.888C274.309 344.958 274.251 345.015 274.182 345.056L266.634 349.417C266.565 349.458 266.486 349.479 266.406 349.479Z" fill="#3F3D56"/>
<path d="M276.526 351.069C276.405 351.069 276.289 351.021 276.203 350.935C276.117 350.849 276.069 350.733 276.069 350.611V338.707C276.069 338.585 276.117 338.469 276.203 338.383C276.289 338.297 276.405 338.249 276.526 338.249C276.648 338.249 276.764 338.297 276.85 338.383C276.936 338.469 276.984 338.585 276.984 338.707V350.611C276.984 350.733 276.936 350.849 276.85 350.935C276.764 351.021 276.648 351.069 276.526 351.069Z" fill="#3F3D56"/>
<path d="M83.7935 355.448C83.0375 354.69 82.4568 353.775 82.0923 352.768C81.7277 351.761 81.5882 350.687 81.6835 349.62C81.7788 348.553 82.1066 347.52 82.6439 346.594C83.1812 345.668 83.9148 344.871 84.7931 344.259L77.7565 319.195L90.6324 323.31L95.3405 346.48C96.2695 348.025 96.5999 349.858 96.2693 351.63C95.9386 353.403 94.9699 354.992 93.5466 356.098C92.1232 357.203 90.3442 357.748 88.5467 357.628C86.7491 357.508 85.0579 356.732 83.7935 355.448Z" fill="#FFB6B6"/>
<path d="M80.352 230.576L77.6849 227.797C77.6849 227.797 69.4386 233.467 71.1834 251.041C72.4721 264.022 68.3996 269.527 68.8548 307.257L80.352 341.811L93.6501 334.833L84.0291 292.199L80.352 230.576Z" fill="#99DDFF"/>
<path d="M90.328 511.015H99.8632L104.4 474.201L90.3262 474.202L90.328 511.015Z" fill="#FFB6B6"/>
<path d="M87.896 507.899L106.674 507.898C109.848 507.898 112.893 509.16 115.137 511.406C117.381 513.653 118.642 516.699 118.642 519.876V520.265L87.8966 520.266L87.896 507.899Z" fill="#2F2E41"/>
<path d="M118.136 507.635L127.6 508.796L136.58 472.81L122.612 471.095L118.136 507.635Z" fill="#FFB6B6"/>
<path d="M116.1 504.245L134.739 506.533C137.889 506.92 140.758 508.543 142.712 511.046C144.666 513.549 145.547 516.727 145.161 519.88L145.114 520.266L114.597 516.521L116.1 504.245Z" fill="#2F2E41"/>
<path d="M85.3858 322.269C85.3858 322.269 67.0179 334.833 76.2014 368.844L88.6209 500.858L103.376 500.754L109.626 435.613L113.873 389.754L128.065 437.176L116.392 495.366L133.62 497.181L154.261 429.512L144.307 333.166L85.3858 322.269Z" fill="#2F2E41"/>
<path d="M129.705 224.231L120.366 216.712L95.5979 215.691L77.6849 227.797C77.6849 227.797 75.8359 270.904 87.9572 309.303L81.6022 325.343L145.143 333.322L129.705 224.231Z" fill="#99DDFF"/>
<path d="M109.68 206.466C121.413 206.466 130.925 196.945 130.925 185.201C130.925 173.456 121.413 163.936 109.68 163.936C97.9467 163.936 88.4349 173.456 88.4349 185.201C88.4349 196.945 97.9467 206.466 109.68 206.466Z" fill="#FFB6B6"/>
<path d="M115.253 158.914H110.532C107.242 157.932 103.769 157.734 100.389 158.333C97.0084 158.933 93.815 160.314 91.0626 162.368C88.3102 164.421 86.075 167.089 84.535 170.16C82.995 173.231 82.1929 176.62 82.1925 180.056L74.8394 204.343C74.6274 205.043 74.5821 205.784 74.7073 206.505C74.8325 207.226 75.1246 207.907 75.5603 208.495C75.9959 209.083 76.563 209.56 77.2161 209.889C77.8692 210.218 78.5902 210.389 79.3213 210.389H82.9104C84.4133 208.247 85.0688 205.622 84.7502 203.024C85.4176 204.651 85.8853 206.352 86.143 208.092C86.2262 208.857 86.2104 209.629 86.0959 210.389H117.32C117.522 207.324 116.508 204.303 114.497 201.982C117.013 204.497 119.199 207.322 121.004 210.389H121.591C122.833 210.389 124.024 209.895 124.902 209.016C125.78 208.137 126.273 206.945 126.273 205.702V181.894H138.212C138.212 178.876 137.618 175.888 136.464 173.1C135.31 170.312 133.619 167.778 131.487 165.645C129.355 163.511 126.825 161.818 124.039 160.663C121.254 159.508 118.268 158.914 115.253 158.914Z" fill="#2F2E41"/>
<path d="M138.895 353.61C138.139 352.852 137.558 351.937 137.193 350.93C136.829 349.923 136.689 348.848 136.785 347.782C136.88 346.715 137.208 345.682 137.745 344.756C138.282 343.829 139.016 343.032 139.894 342.421L132.858 317.357L145.734 321.472L150.442 344.642C151.371 346.187 151.701 348.019 151.37 349.792C151.04 351.564 150.071 353.154 148.648 354.259C147.224 355.365 145.445 355.909 143.648 355.789C141.85 355.67 140.159 354.894 138.895 353.61Z" fill="#FFB6B6"/>
<path d="M121.651 228.987L129.705 224.231C129.705 224.231 142.373 221.995 143.725 238.889C145.078 255.782 147.025 299.633 147.025 299.633L150.976 336.599L136.314 339.729L119.462 289.177L121.651 228.987Z" fill="#99DDFF"/>
<path d="M195.609 522H0.918351C0.674789 522 0.441216 521.903 0.268992 521.731C0.0967679 521.558 0 521.325 0 521.081C0 520.837 0.0967679 520.603 0.268992 520.431C0.441216 520.258 0.674789 520.162 0.918351 520.162H195.609C195.852 520.162 196.086 520.258 196.258 520.431C196.43 520.603 196.527 520.837 196.527 521.081C196.527 521.325 196.43 521.558 196.258 521.731C196.086 521.903 195.852 522 195.609 522Z" fill="#CACACA"/>
</g>
<defs>
<clipPath id="clip0_61_110">
<rect width="568" height="522" fill="white"/>
</clipPath>
</defs>
</svg>
